<mxfile host="Electron" agent="Mozilla/5.0 (X11; Linux x86_64) AppleWebKit/537.36 (KHTML, like Gecko) draw.io/24.7.17 Chrome/128.0.6613.36 Electron/32.0.1 Safari/537.36" version="24.7.17">
  <diagram id="6a731a19-8d31-9384-78a2-239565b7b9f0" name="Page-1">
    <mxGraphModel dx="5074" dy="3095" grid="1" gridSize="10" guides="1" tooltips="1" connect="1" arrows="1" fold="1" page="1" pageScale="1" pageWidth="1169" pageHeight="827" background="none" math="0" shadow="0">
      <root>
        <mxCell id="0" />
        <mxCell id="1" parent="0" />
        <mxCell id="1745" value="" style="edgeStyle=none;rounded=0;jumpStyle=none;html=1;shadow=0;labelBackgroundColor=none;startArrow=none;startFill=0;endArrow=classic;endFill=1;jettySize=auto;orthogonalLoop=1;strokeColor=#2F5B7C;strokeWidth=3;fontFamily=Helvetica;fontSize=16;fontColor=#23445D;spacing=5;" parent="1" source="1749" target="1764" edge="1">
          <mxGeometry relative="1" as="geometry" />
        </mxCell>
        <mxCell id="1746" value="" style="edgeStyle=none;rounded=0;jumpStyle=none;html=1;shadow=0;labelBackgroundColor=none;startArrow=none;startFill=0;endArrow=classic;endFill=1;jettySize=auto;orthogonalLoop=1;strokeColor=#2F5B7C;strokeWidth=3;fontFamily=Helvetica;fontSize=16;fontColor=#23445D;spacing=5;" parent="1" source="1749" target="1771" edge="1">
          <mxGeometry relative="1" as="geometry" />
        </mxCell>
        <mxCell id="1747" value="" style="edgeStyle=none;rounded=0;jumpStyle=none;html=1;shadow=0;labelBackgroundColor=none;startArrow=none;startFill=0;endArrow=classic;endFill=1;jettySize=auto;orthogonalLoop=1;strokeColor=#2F5B7C;strokeWidth=3;fontFamily=Helvetica;fontSize=16;fontColor=#23445D;spacing=5;" parent="1" source="1749" target="1760" edge="1">
          <mxGeometry relative="1" as="geometry" />
        </mxCell>
        <mxCell id="1748" value="" style="edgeStyle=none;rounded=0;jumpStyle=none;html=1;shadow=0;labelBackgroundColor=none;startArrow=none;startFill=0;endArrow=classic;endFill=1;jettySize=auto;orthogonalLoop=1;strokeColor=#2F5B7C;strokeWidth=3;fontFamily=Helvetica;fontSize=16;fontColor=#23445D;spacing=5;" parent="1" source="1749" target="1753" edge="1">
          <mxGeometry relative="1" as="geometry" />
        </mxCell>
        <mxCell id="1749" value="Безопастность данных" style="rounded=1;whiteSpace=wrap;html=1;shadow=0;labelBackgroundColor=none;strokeColor=none;strokeWidth=3;fillColor=#2F5B7C;fontFamily=Helvetica;fontSize=16;fontColor=#FFFFFF;align=center;fontStyle=1;spacing=5;arcSize=7;perimeterSpacing=2;" parent="1" vertex="1">
          <mxGeometry x="495" y="380.5" width="150" height="70" as="geometry" />
        </mxCell>
        <mxCell id="1750" value="" style="edgeStyle=none;rounded=1;jumpStyle=none;html=1;shadow=0;labelBackgroundColor=none;startArrow=none;startFill=0;jettySize=auto;orthogonalLoop=1;strokeColor=#E85642;strokeWidth=3;fontFamily=Helvetica;fontSize=14;fontColor=#FFFFFF;spacing=5;fontStyle=1;fillColor=#b0e3e6;" parent="1" source="1753" target="1756" edge="1">
          <mxGeometry relative="1" as="geometry" />
        </mxCell>
        <mxCell id="1751" value="" style="edgeStyle=none;rounded=1;jumpStyle=none;html=1;shadow=0;labelBackgroundColor=none;startArrow=none;startFill=0;jettySize=auto;orthogonalLoop=1;strokeColor=#E85642;strokeWidth=3;fontFamily=Helvetica;fontSize=14;fontColor=#FFFFFF;spacing=5;fontStyle=1;fillColor=#b0e3e6;" parent="1" source="1753" target="1755" edge="1">
          <mxGeometry relative="1" as="geometry" />
        </mxCell>
        <mxCell id="1753" value="секретные данные" style="rounded=1;whiteSpace=wrap;html=1;shadow=0;labelBackgroundColor=none;strokeColor=none;strokeWidth=3;fillColor=#e85642;fontFamily=Helvetica;fontSize=14;fontColor=#FFFFFF;align=center;spacing=5;fontStyle=1;arcSize=7;perimeterSpacing=2;" parent="1" vertex="1">
          <mxGeometry x="215" y="385.5" width="150" height="60" as="geometry" />
        </mxCell>
        <mxCell id="pC5a80TTFG_IJ3n6PgxR-1796" style="edgeStyle=orthogonalEdgeStyle;rounded=0;orthogonalLoop=1;jettySize=auto;html=1;entryX=1;entryY=0.5;entryDx=0;entryDy=0;" edge="1" parent="1" source="1755" target="pC5a80TTFG_IJ3n6PgxR-1791">
          <mxGeometry relative="1" as="geometry" />
        </mxCell>
        <mxCell id="pC5a80TTFG_IJ3n6PgxR-1797" style="edgeStyle=orthogonalEdgeStyle;rounded=0;orthogonalLoop=1;jettySize=auto;html=1;entryX=1;entryY=0.5;entryDx=0;entryDy=0;" edge="1" parent="1" source="1755" target="pC5a80TTFG_IJ3n6PgxR-1790">
          <mxGeometry relative="1" as="geometry" />
        </mxCell>
        <mxCell id="pC5a80TTFG_IJ3n6PgxR-1798" style="edgeStyle=orthogonalEdgeStyle;rounded=0;orthogonalLoop=1;jettySize=auto;html=1;entryX=1;entryY=0.5;entryDx=0;entryDy=0;" edge="1" parent="1" source="1755" target="pC5a80TTFG_IJ3n6PgxR-1789">
          <mxGeometry relative="1" as="geometry" />
        </mxCell>
        <mxCell id="pC5a80TTFG_IJ3n6PgxR-1799" style="edgeStyle=orthogonalEdgeStyle;rounded=0;orthogonalLoop=1;jettySize=auto;html=1;entryX=1;entryY=0.5;entryDx=0;entryDy=0;" edge="1" parent="1" source="1755" target="pC5a80TTFG_IJ3n6PgxR-1788">
          <mxGeometry relative="1" as="geometry" />
        </mxCell>
        <mxCell id="1755" value="Данные взаимдействия с партнёрами" style="rounded=1;whiteSpace=wrap;html=1;shadow=0;labelBackgroundColor=none;strokeColor=none;strokeWidth=3;fillColor=#f08e81;fontFamily=Helvetica;fontSize=14;fontColor=#FFFFFF;align=center;spacing=5;fontStyle=0;arcSize=7;perimeterSpacing=2;" parent="1" vertex="1">
          <mxGeometry x="14" y="385.5" width="150" height="60" as="geometry" />
        </mxCell>
        <mxCell id="pC5a80TTFG_IJ3n6PgxR-1780" value="" style="edgeStyle=orthogonalEdgeStyle;rounded=0;orthogonalLoop=1;jettySize=auto;html=1;" edge="1" parent="1" source="1756" target="pC5a80TTFG_IJ3n6PgxR-1779">
          <mxGeometry relative="1" as="geometry" />
        </mxCell>
        <mxCell id="pC5a80TTFG_IJ3n6PgxR-1781" value="" style="edgeStyle=orthogonalEdgeStyle;rounded=0;orthogonalLoop=1;jettySize=auto;html=1;" edge="1" parent="1" source="1756" target="pC5a80TTFG_IJ3n6PgxR-1779">
          <mxGeometry relative="1" as="geometry" />
        </mxCell>
        <mxCell id="pC5a80TTFG_IJ3n6PgxR-1785" style="edgeStyle=orthogonalEdgeStyle;rounded=0;orthogonalLoop=1;jettySize=auto;html=1;entryX=1;entryY=0.5;entryDx=0;entryDy=0;" edge="1" parent="1" source="1756" target="pC5a80TTFG_IJ3n6PgxR-1782">
          <mxGeometry relative="1" as="geometry" />
        </mxCell>
        <mxCell id="pC5a80TTFG_IJ3n6PgxR-1786" style="edgeStyle=orthogonalEdgeStyle;rounded=0;orthogonalLoop=1;jettySize=auto;html=1;entryX=1;entryY=0.5;entryDx=0;entryDy=0;" edge="1" parent="1" source="1756" target="pC5a80TTFG_IJ3n6PgxR-1783">
          <mxGeometry relative="1" as="geometry" />
        </mxCell>
        <mxCell id="pC5a80TTFG_IJ3n6PgxR-1787" style="edgeStyle=orthogonalEdgeStyle;rounded=0;orthogonalLoop=1;jettySize=auto;html=1;entryX=1;entryY=0.5;entryDx=0;entryDy=0;" edge="1" parent="1" source="1756" target="pC5a80TTFG_IJ3n6PgxR-1784">
          <mxGeometry relative="1" as="geometry" />
        </mxCell>
        <mxCell id="1756" value="Данные аутентификации сервисов и сертификаты" style="rounded=1;whiteSpace=wrap;html=1;shadow=0;labelBackgroundColor=none;strokeColor=none;strokeWidth=3;fillColor=#f08e81;fontFamily=Helvetica;fontSize=14;fontColor=#FFFFFF;align=center;spacing=5;fontStyle=0;arcSize=7;perimeterSpacing=2;" parent="1" vertex="1">
          <mxGeometry x="65" y="240" width="150" height="74.5" as="geometry" />
        </mxCell>
        <mxCell id="1757" value="" style="edgeStyle=none;rounded=0;jumpStyle=none;html=1;shadow=0;labelBackgroundColor=none;startArrow=none;startFill=0;endArrow=classic;endFill=1;jettySize=auto;orthogonalLoop=1;strokeColor=#1699D3;strokeWidth=3;fontFamily=Helvetica;fontSize=14;fontColor=#FFFFFF;spacing=5;" parent="1" source="1760" target="1763" edge="1">
          <mxGeometry relative="1" as="geometry" />
        </mxCell>
        <mxCell id="1758" value="" style="edgeStyle=none;rounded=0;jumpStyle=none;html=1;shadow=0;labelBackgroundColor=none;startArrow=none;startFill=0;endArrow=classic;endFill=1;jettySize=auto;orthogonalLoop=1;strokeColor=#1699D3;strokeWidth=3;fontFamily=Helvetica;fontSize=14;fontColor=#FFFFFF;spacing=5;" parent="1" source="1760" target="1762" edge="1">
          <mxGeometry relative="1" as="geometry" />
        </mxCell>
        <mxCell id="1759" value="" style="edgeStyle=none;rounded=0;jumpStyle=none;html=1;shadow=0;labelBackgroundColor=none;startArrow=none;startFill=0;endArrow=classic;endFill=1;jettySize=auto;orthogonalLoop=1;strokeColor=#1699D3;strokeWidth=3;fontFamily=Helvetica;fontSize=14;fontColor=#FFFFFF;spacing=5;" parent="1" source="1760" target="1761" edge="1">
          <mxGeometry relative="1" as="geometry" />
        </mxCell>
        <mxCell id="1760" value="конфиденциальные данные" style="rounded=1;whiteSpace=wrap;html=1;shadow=0;labelBackgroundColor=none;strokeColor=none;strokeWidth=3;fillColor=#1699d3;fontFamily=Helvetica;fontSize=14;fontColor=#FFFFFF;align=center;spacing=5;fontStyle=1;arcSize=7;perimeterSpacing=2;" parent="1" vertex="1">
          <mxGeometry x="495" y="570.5" width="150" height="60" as="geometry" />
        </mxCell>
        <mxCell id="pC5a80TTFG_IJ3n6PgxR-1820" style="edgeStyle=orthogonalEdgeStyle;rounded=0;orthogonalLoop=1;jettySize=auto;html=1;entryX=0.5;entryY=0;entryDx=0;entryDy=0;" edge="1" parent="1" source="1761" target="pC5a80TTFG_IJ3n6PgxR-1819">
          <mxGeometry relative="1" as="geometry">
            <Array as="points">
              <mxPoint x="770" y="790" />
              <mxPoint x="800" y="790" />
            </Array>
          </mxGeometry>
        </mxCell>
        <mxCell id="pC5a80TTFG_IJ3n6PgxR-1821" style="edgeStyle=orthogonalEdgeStyle;rounded=0;orthogonalLoop=1;jettySize=auto;html=1;" edge="1" parent="1" source="1761" target="pC5a80TTFG_IJ3n6PgxR-1818">
          <mxGeometry relative="1" as="geometry">
            <Array as="points">
              <mxPoint x="770" y="790" />
              <mxPoint x="930" y="790" />
            </Array>
          </mxGeometry>
        </mxCell>
        <mxCell id="pC5a80TTFG_IJ3n6PgxR-1822" style="edgeStyle=orthogonalEdgeStyle;rounded=0;orthogonalLoop=1;jettySize=auto;html=1;" edge="1" parent="1" source="1761" target="pC5a80TTFG_IJ3n6PgxR-1817">
          <mxGeometry relative="1" as="geometry">
            <Array as="points">
              <mxPoint x="770" y="790" />
              <mxPoint x="1060" y="790" />
            </Array>
          </mxGeometry>
        </mxCell>
        <mxCell id="pC5a80TTFG_IJ3n6PgxR-1823" style="edgeStyle=orthogonalEdgeStyle;rounded=0;orthogonalLoop=1;jettySize=auto;html=1;entryX=0.5;entryY=0;entryDx=0;entryDy=0;" edge="1" parent="1" source="1761" target="pC5a80TTFG_IJ3n6PgxR-1816">
          <mxGeometry relative="1" as="geometry">
            <Array as="points">
              <mxPoint x="770" y="790" />
              <mxPoint x="1190" y="790" />
            </Array>
          </mxGeometry>
        </mxCell>
        <mxCell id="1761" value="Персональные предложения по ЖКХ&amp;nbsp;" style="rounded=1;whiteSpace=wrap;html=1;shadow=0;labelBackgroundColor=none;strokeColor=none;strokeWidth=3;fillColor=#64bbe2;fontFamily=Helvetica;fontSize=14;fontColor=#FFFFFF;align=center;spacing=5;arcSize=7;perimeterSpacing=2;" parent="1" vertex="1">
          <mxGeometry x="695" y="650.5" width="150" height="60" as="geometry" />
        </mxCell>
        <mxCell id="pC5a80TTFG_IJ3n6PgxR-1812" style="edgeStyle=orthogonalEdgeStyle;rounded=0;orthogonalLoop=1;jettySize=auto;html=1;" edge="1" parent="1" source="1762" target="pC5a80TTFG_IJ3n6PgxR-1811">
          <mxGeometry relative="1" as="geometry">
            <Array as="points">
              <mxPoint x="570" y="1000" />
              <mxPoint x="375" y="1000" />
            </Array>
          </mxGeometry>
        </mxCell>
        <mxCell id="pC5a80TTFG_IJ3n6PgxR-1813" style="edgeStyle=orthogonalEdgeStyle;rounded=0;orthogonalLoop=1;jettySize=auto;html=1;" edge="1" parent="1" source="1762" target="pC5a80TTFG_IJ3n6PgxR-1810">
          <mxGeometry relative="1" as="geometry">
            <Array as="points">
              <mxPoint x="570" y="1000" />
              <mxPoint x="505" y="1000" />
            </Array>
          </mxGeometry>
        </mxCell>
        <mxCell id="pC5a80TTFG_IJ3n6PgxR-1814" style="edgeStyle=orthogonalEdgeStyle;rounded=0;orthogonalLoop=1;jettySize=auto;html=1;" edge="1" parent="1" source="1762" target="pC5a80TTFG_IJ3n6PgxR-1809">
          <mxGeometry relative="1" as="geometry">
            <Array as="points">
              <mxPoint x="570" y="1000" />
              <mxPoint x="635" y="1000" />
            </Array>
          </mxGeometry>
        </mxCell>
        <mxCell id="pC5a80TTFG_IJ3n6PgxR-1815" style="edgeStyle=orthogonalEdgeStyle;rounded=0;orthogonalLoop=1;jettySize=auto;html=1;entryX=0.5;entryY=0;entryDx=0;entryDy=0;" edge="1" parent="1" source="1762" target="pC5a80TTFG_IJ3n6PgxR-1808">
          <mxGeometry relative="1" as="geometry">
            <Array as="points">
              <mxPoint x="570" y="1000" />
              <mxPoint x="765" y="1000" />
            </Array>
          </mxGeometry>
        </mxCell>
        <mxCell id="1762" value="Данные о сделаках с недвижимостью" style="rounded=1;whiteSpace=wrap;html=1;shadow=0;labelBackgroundColor=none;strokeColor=none;strokeWidth=3;fillColor=#64bbe2;fontFamily=Helvetica;fontSize=14;fontColor=#FFFFFF;align=center;spacing=5;arcSize=7;perimeterSpacing=2;" parent="1" vertex="1">
          <mxGeometry x="495" y="716.5" width="150" height="60" as="geometry" />
        </mxCell>
        <mxCell id="pC5a80TTFG_IJ3n6PgxR-1804" style="edgeStyle=orthogonalEdgeStyle;rounded=0;orthogonalLoop=1;jettySize=auto;html=1;" edge="1" parent="1" source="1763" target="pC5a80TTFG_IJ3n6PgxR-1803">
          <mxGeometry relative="1" as="geometry">
            <Array as="points">
              <mxPoint x="370" y="780" />
              <mxPoint x="-150" y="780" />
            </Array>
          </mxGeometry>
        </mxCell>
        <mxCell id="pC5a80TTFG_IJ3n6PgxR-1805" style="edgeStyle=orthogonalEdgeStyle;rounded=0;orthogonalLoop=1;jettySize=auto;html=1;entryX=0.5;entryY=0;entryDx=0;entryDy=0;" edge="1" parent="1" source="1763" target="pC5a80TTFG_IJ3n6PgxR-1802">
          <mxGeometry relative="1" as="geometry">
            <Array as="points">
              <mxPoint x="370" y="780" />
              <mxPoint x="-20" y="780" />
            </Array>
          </mxGeometry>
        </mxCell>
        <mxCell id="pC5a80TTFG_IJ3n6PgxR-1806" style="edgeStyle=orthogonalEdgeStyle;rounded=0;orthogonalLoop=1;jettySize=auto;html=1;entryX=0.5;entryY=0;entryDx=0;entryDy=0;" edge="1" parent="1" source="1763" target="pC5a80TTFG_IJ3n6PgxR-1801">
          <mxGeometry relative="1" as="geometry">
            <Array as="points">
              <mxPoint x="370" y="780" />
              <mxPoint x="110" y="780" />
            </Array>
          </mxGeometry>
        </mxCell>
        <mxCell id="pC5a80TTFG_IJ3n6PgxR-1807" style="edgeStyle=orthogonalEdgeStyle;rounded=0;orthogonalLoop=1;jettySize=auto;html=1;" edge="1" parent="1" source="1763" target="pC5a80TTFG_IJ3n6PgxR-1800">
          <mxGeometry relative="1" as="geometry">
            <Array as="points">
              <mxPoint x="370" y="780" />
              <mxPoint x="240" y="780" />
            </Array>
          </mxGeometry>
        </mxCell>
        <mxCell id="1763" value="Персональные данные клиентов" style="rounded=1;whiteSpace=wrap;html=1;shadow=0;labelBackgroundColor=none;strokeColor=none;strokeWidth=3;fillColor=#64bbe2;fontFamily=Helvetica;fontSize=14;fontColor=#FFFFFF;align=center;spacing=5;arcSize=7;perimeterSpacing=2;" parent="1" vertex="1">
          <mxGeometry x="295" y="650.5" width="150" height="60" as="geometry" />
        </mxCell>
        <mxCell id="1764" value="публичные данные" style="rounded=1;whiteSpace=wrap;html=1;shadow=0;labelBackgroundColor=none;strokeColor=none;strokeWidth=3;fillColor=#F08705;fontFamily=Helvetica;fontSize=14;fontColor=#FFFFFF;align=center;spacing=5;fontStyle=1;arcSize=7;perimeterSpacing=2;" parent="1" vertex="1">
          <mxGeometry x="495" y="200.5" width="150" height="60" as="geometry" />
        </mxCell>
        <mxCell id="pC5a80TTFG_IJ3n6PgxR-1840" style="edgeStyle=orthogonalEdgeStyle;rounded=0;orthogonalLoop=1;jettySize=auto;html=1;entryX=0.5;entryY=1;entryDx=0;entryDy=0;" edge="1" parent="1" source="1765" target="pC5a80TTFG_IJ3n6PgxR-1835">
          <mxGeometry relative="1" as="geometry">
            <Array as="points">
              <mxPoint x="830" y="-180" />
              <mxPoint x="905" y="-180" />
            </Array>
          </mxGeometry>
        </mxCell>
        <mxCell id="pC5a80TTFG_IJ3n6PgxR-1841" style="edgeStyle=orthogonalEdgeStyle;rounded=0;orthogonalLoop=1;jettySize=auto;html=1;entryX=0.5;entryY=1;entryDx=0;entryDy=0;" edge="1" parent="1" source="1765" target="pC5a80TTFG_IJ3n6PgxR-1834">
          <mxGeometry relative="1" as="geometry">
            <Array as="points">
              <mxPoint x="830" y="-180" />
              <mxPoint x="1035" y="-180" />
            </Array>
          </mxGeometry>
        </mxCell>
        <mxCell id="pC5a80TTFG_IJ3n6PgxR-1842" style="edgeStyle=orthogonalEdgeStyle;rounded=0;orthogonalLoop=1;jettySize=auto;html=1;entryX=0.5;entryY=1;entryDx=0;entryDy=0;" edge="1" parent="1" source="1765" target="pC5a80TTFG_IJ3n6PgxR-1833">
          <mxGeometry relative="1" as="geometry">
            <Array as="points">
              <mxPoint x="830" y="-180" />
              <mxPoint x="1165" y="-180" />
            </Array>
          </mxGeometry>
        </mxCell>
        <mxCell id="pC5a80TTFG_IJ3n6PgxR-1843" style="edgeStyle=orthogonalEdgeStyle;rounded=0;orthogonalLoop=1;jettySize=auto;html=1;entryX=0.5;entryY=1;entryDx=0;entryDy=0;" edge="1" parent="1" source="1765" target="pC5a80TTFG_IJ3n6PgxR-1832">
          <mxGeometry relative="1" as="geometry">
            <Array as="points">
              <mxPoint x="830" y="-180" />
              <mxPoint x="1295" y="-180" />
            </Array>
          </mxGeometry>
        </mxCell>
        <mxCell id="1765" value="Онлайн-сделка" style="rounded=1;whiteSpace=wrap;html=1;shadow=0;labelBackgroundColor=none;strokeColor=none;strokeWidth=3;fillColor=#f5af58;fontFamily=Helvetica;fontSize=14;fontColor=#FFFFFF;align=center;spacing=5;arcSize=7;perimeterSpacing=2;" parent="1" vertex="1">
          <mxGeometry x="695" y="110.5" width="150" height="60" as="geometry" />
        </mxCell>
        <mxCell id="1766" value="" style="edgeStyle=none;rounded=0;jumpStyle=none;html=1;shadow=0;labelBackgroundColor=none;startArrow=none;startFill=0;endArrow=classic;endFill=1;jettySize=auto;orthogonalLoop=1;strokeColor=#F08705;strokeWidth=3;fontFamily=Helvetica;fontSize=14;fontColor=#FFFFFF;spacing=5;" parent="1" source="1764" target="1765" edge="1">
          <mxGeometry relative="1" as="geometry" />
        </mxCell>
        <mxCell id="pC5a80TTFG_IJ3n6PgxR-1836" style="edgeStyle=orthogonalEdgeStyle;rounded=0;orthogonalLoop=1;jettySize=auto;html=1;entryX=0.5;entryY=1;entryDx=0;entryDy=0;" edge="1" parent="1" source="1767" target="pC5a80TTFG_IJ3n6PgxR-1830">
          <mxGeometry relative="1" as="geometry" />
        </mxCell>
        <mxCell id="pC5a80TTFG_IJ3n6PgxR-1837" style="edgeStyle=orthogonalEdgeStyle;rounded=0;orthogonalLoop=1;jettySize=auto;html=1;entryX=0.5;entryY=1;entryDx=0;entryDy=0;" edge="1" parent="1" source="1767" target="pC5a80TTFG_IJ3n6PgxR-1829">
          <mxGeometry relative="1" as="geometry" />
        </mxCell>
        <mxCell id="pC5a80TTFG_IJ3n6PgxR-1838" style="edgeStyle=orthogonalEdgeStyle;rounded=0;orthogonalLoop=1;jettySize=auto;html=1;entryX=0.5;entryY=1;entryDx=0;entryDy=0;" edge="1" parent="1" source="1767" target="pC5a80TTFG_IJ3n6PgxR-1828">
          <mxGeometry relative="1" as="geometry">
            <Array as="points">
              <mxPoint x="570" y="-20" />
              <mxPoint x="760" y="-20" />
            </Array>
          </mxGeometry>
        </mxCell>
        <mxCell id="pC5a80TTFG_IJ3n6PgxR-1839" style="edgeStyle=orthogonalEdgeStyle;rounded=0;orthogonalLoop=1;jettySize=auto;html=1;entryX=0.5;entryY=1;entryDx=0;entryDy=0;" edge="1" parent="1" source="1767" target="pC5a80TTFG_IJ3n6PgxR-1831">
          <mxGeometry relative="1" as="geometry">
            <Array as="points">
              <mxPoint x="570" y="-20" />
              <mxPoint x="370" y="-20" />
            </Array>
          </mxGeometry>
        </mxCell>
        <mxCell id="1767" value="Онлайн-тур" style="rounded=1;whiteSpace=wrap;html=1;shadow=0;labelBackgroundColor=none;strokeColor=none;strokeWidth=3;fillColor=#f5af58;fontFamily=Helvetica;fontSize=14;fontColor=#FFFFFF;align=center;spacing=5;arcSize=7;perimeterSpacing=2;" parent="1" vertex="1">
          <mxGeometry x="495" y="50.5" width="150" height="60" as="geometry" />
        </mxCell>
        <mxCell id="1768" value="" style="edgeStyle=none;rounded=0;jumpStyle=none;html=1;shadow=0;labelBackgroundColor=none;startArrow=none;startFill=0;endArrow=classic;endFill=1;jettySize=auto;orthogonalLoop=1;strokeColor=#F08705;strokeWidth=3;fontFamily=Helvetica;fontSize=14;fontColor=#FFFFFF;spacing=5;" parent="1" source="1764" target="1767" edge="1">
          <mxGeometry relative="1" as="geometry" />
        </mxCell>
        <mxCell id="pC5a80TTFG_IJ3n6PgxR-1844" style="edgeStyle=orthogonalEdgeStyle;rounded=0;orthogonalLoop=1;jettySize=auto;html=1;" edge="1" parent="1" source="1769" target="pC5a80TTFG_IJ3n6PgxR-1824">
          <mxGeometry relative="1" as="geometry">
            <Array as="points">
              <mxPoint x="300" y="-180" />
              <mxPoint x="235" y="-180" />
            </Array>
          </mxGeometry>
        </mxCell>
        <mxCell id="pC5a80TTFG_IJ3n6PgxR-1845" style="edgeStyle=orthogonalEdgeStyle;rounded=0;orthogonalLoop=1;jettySize=auto;html=1;entryX=0.5;entryY=1;entryDx=0;entryDy=0;" edge="1" parent="1" source="1769" target="pC5a80TTFG_IJ3n6PgxR-1825">
          <mxGeometry relative="1" as="geometry">
            <Array as="points">
              <mxPoint x="300" y="-180" />
              <mxPoint x="105" y="-180" />
            </Array>
          </mxGeometry>
        </mxCell>
        <mxCell id="pC5a80TTFG_IJ3n6PgxR-1846" style="edgeStyle=orthogonalEdgeStyle;rounded=0;orthogonalLoop=1;jettySize=auto;html=1;entryX=0.5;entryY=1;entryDx=0;entryDy=0;" edge="1" parent="1" source="1769" target="pC5a80TTFG_IJ3n6PgxR-1826">
          <mxGeometry relative="1" as="geometry">
            <Array as="points">
              <mxPoint x="300" y="-180" />
              <mxPoint x="-25" y="-180" />
            </Array>
          </mxGeometry>
        </mxCell>
        <mxCell id="pC5a80TTFG_IJ3n6PgxR-1847" style="edgeStyle=orthogonalEdgeStyle;rounded=0;orthogonalLoop=1;jettySize=auto;html=1;entryX=0.5;entryY=1;entryDx=0;entryDy=0;" edge="1" parent="1" source="1769" target="pC5a80TTFG_IJ3n6PgxR-1827">
          <mxGeometry relative="1" as="geometry">
            <Array as="points">
              <mxPoint x="300" y="-180" />
              <mxPoint x="-155" y="-180" />
            </Array>
          </mxGeometry>
        </mxCell>
        <mxCell id="1769" value="Онлайн-витрина для подбора и бронирования недвижимости из фонда" style="rounded=1;whiteSpace=wrap;html=1;shadow=0;labelBackgroundColor=none;strokeColor=none;strokeWidth=3;fillColor=#f5af58;fontFamily=Helvetica;fontSize=14;fontColor=#FFFFFF;align=center;spacing=5;arcSize=7;perimeterSpacing=2;" parent="1" vertex="1">
          <mxGeometry x="260" y="60" width="185" height="110.5" as="geometry" />
        </mxCell>
        <mxCell id="1770" value="" style="edgeStyle=none;rounded=0;jumpStyle=none;html=1;shadow=0;labelBackgroundColor=none;startArrow=none;startFill=0;endArrow=classic;endFill=1;jettySize=auto;orthogonalLoop=1;strokeColor=#F08705;strokeWidth=3;fontFamily=Helvetica;fontSize=14;fontColor=#FFFFFF;spacing=5;" parent="1" source="1764" target="1769" edge="1">
          <mxGeometry relative="1" as="geometry" />
        </mxCell>
        <mxCell id="1771" value="внутренние данные" style="rounded=1;whiteSpace=wrap;html=1;shadow=0;labelBackgroundColor=none;strokeColor=none;strokeWidth=3;fillColor=#12aab5;fontFamily=Helvetica;fontSize=14;fontColor=#FFFFFF;align=center;spacing=5;fontStyle=1;arcSize=7;perimeterSpacing=2;" parent="1" vertex="1">
          <mxGeometry x="795" y="385.4999999999999" width="150" height="60" as="geometry" />
        </mxCell>
        <mxCell id="pC5a80TTFG_IJ3n6PgxR-1860" style="edgeStyle=orthogonalEdgeStyle;rounded=0;orthogonalLoop=1;jettySize=auto;html=1;entryX=0;entryY=0.5;entryDx=0;entryDy=0;" edge="1" parent="1" source="1774" target="pC5a80TTFG_IJ3n6PgxR-1855">
          <mxGeometry relative="1" as="geometry">
            <Array as="points">
              <mxPoint x="1180" y="465" />
              <mxPoint x="1180" y="550" />
            </Array>
          </mxGeometry>
        </mxCell>
        <mxCell id="pC5a80TTFG_IJ3n6PgxR-1861" style="edgeStyle=orthogonalEdgeStyle;rounded=0;orthogonalLoop=1;jettySize=auto;html=1;entryX=0;entryY=0.5;entryDx=0;entryDy=0;" edge="1" parent="1" source="1774" target="pC5a80TTFG_IJ3n6PgxR-1854">
          <mxGeometry relative="1" as="geometry">
            <Array as="points">
              <mxPoint x="1180" y="465" />
              <mxPoint x="1180" y="620" />
            </Array>
          </mxGeometry>
        </mxCell>
        <mxCell id="pC5a80TTFG_IJ3n6PgxR-1862" style="edgeStyle=orthogonalEdgeStyle;rounded=0;orthogonalLoop=1;jettySize=auto;html=1;entryX=0;entryY=0.5;entryDx=0;entryDy=0;" edge="1" parent="1" source="1774" target="pC5a80TTFG_IJ3n6PgxR-1853">
          <mxGeometry relative="1" as="geometry">
            <Array as="points">
              <mxPoint x="1180" y="465" />
              <mxPoint x="1180" y="691" />
            </Array>
          </mxGeometry>
        </mxCell>
        <mxCell id="pC5a80TTFG_IJ3n6PgxR-1863" style="edgeStyle=orthogonalEdgeStyle;rounded=0;orthogonalLoop=1;jettySize=auto;html=1;entryX=0;entryY=0.5;entryDx=0;entryDy=0;" edge="1" parent="1" source="1774" target="pC5a80TTFG_IJ3n6PgxR-1852">
          <mxGeometry relative="1" as="geometry">
            <Array as="points">
              <mxPoint x="1180" y="465" />
              <mxPoint x="1180" y="767" />
            </Array>
          </mxGeometry>
        </mxCell>
        <mxCell id="1774" value="Внутреняя отчётность" style="rounded=1;whiteSpace=wrap;html=1;shadow=0;labelBackgroundColor=none;strokeColor=none;strokeWidth=3;fillColor=#61c6ce;fontFamily=Helvetica;fontSize=14;fontColor=#FFFFFF;align=center;spacing=5;fontStyle=0;arcSize=7;perimeterSpacing=2;" parent="1" vertex="1">
          <mxGeometry x="1005" y="434.5" width="150" height="60" as="geometry" />
        </mxCell>
        <mxCell id="1775" value="" style="edgeStyle=none;rounded=1;jumpStyle=none;html=1;shadow=0;labelBackgroundColor=none;startArrow=none;startFill=0;jettySize=auto;orthogonalLoop=1;strokeColor=#12AAB5;strokeWidth=3;fontFamily=Helvetica;fontSize=14;fontColor=#FFFFFF;spacing=5;fontStyle=1;fillColor=#b0e3e6;" parent="1" source="1771" target="1774" edge="1">
          <mxGeometry relative="1" as="geometry" />
        </mxCell>
        <mxCell id="pC5a80TTFG_IJ3n6PgxR-1864" style="edgeStyle=orthogonalEdgeStyle;rounded=0;orthogonalLoop=1;jettySize=auto;html=1;entryX=0;entryY=0.5;entryDx=0;entryDy=0;" edge="1" parent="1" source="1776" target="pC5a80TTFG_IJ3n6PgxR-1859">
          <mxGeometry relative="1" as="geometry" />
        </mxCell>
        <mxCell id="pC5a80TTFG_IJ3n6PgxR-1865" style="edgeStyle=orthogonalEdgeStyle;rounded=0;orthogonalLoop=1;jettySize=auto;html=1;entryX=0;entryY=0.5;entryDx=0;entryDy=0;" edge="1" parent="1" source="1776" target="pC5a80TTFG_IJ3n6PgxR-1858">
          <mxGeometry relative="1" as="geometry" />
        </mxCell>
        <mxCell id="pC5a80TTFG_IJ3n6PgxR-1866" style="edgeStyle=orthogonalEdgeStyle;rounded=0;orthogonalLoop=1;jettySize=auto;html=1;entryX=0;entryY=0.5;entryDx=0;entryDy=0;" edge="1" parent="1" source="1776" target="pC5a80TTFG_IJ3n6PgxR-1857">
          <mxGeometry relative="1" as="geometry" />
        </mxCell>
        <mxCell id="pC5a80TTFG_IJ3n6PgxR-1867" style="edgeStyle=orthogonalEdgeStyle;rounded=0;orthogonalLoop=1;jettySize=auto;html=1;entryX=0;entryY=0.5;entryDx=0;entryDy=0;" edge="1" parent="1" source="1776" target="pC5a80TTFG_IJ3n6PgxR-1856">
          <mxGeometry relative="1" as="geometry" />
        </mxCell>
        <mxCell id="1776" value="Информация о поставщиках услуг" style="rounded=1;whiteSpace=wrap;html=1;shadow=0;labelBackgroundColor=none;strokeColor=none;strokeWidth=3;fillColor=#61c6ce;fontFamily=Helvetica;fontSize=14;fontColor=#FFFFFF;align=center;spacing=5;fontStyle=0;arcSize=7;perimeterSpacing=2;" parent="1" vertex="1">
          <mxGeometry x="1005" y="324.5" width="150" height="60" as="geometry" />
        </mxCell>
        <mxCell id="1777" value="" style="edgeStyle=none;rounded=1;jumpStyle=none;html=1;shadow=0;labelBackgroundColor=none;startArrow=none;startFill=0;jettySize=auto;orthogonalLoop=1;strokeColor=#12AAB5;strokeWidth=3;fontFamily=Helvetica;fontSize=14;fontColor=#FFFFFF;spacing=5;fontStyle=1;fillColor=#b0e3e6;" parent="1" source="1771" target="1776" edge="1">
          <mxGeometry relative="1" as="geometry" />
        </mxCell>
        <mxCell id="pC5a80TTFG_IJ3n6PgxR-1868" style="edgeStyle=orthogonalEdgeStyle;rounded=0;orthogonalLoop=1;jettySize=auto;html=1;entryX=0;entryY=0.5;entryDx=0;entryDy=0;" edge="1" parent="1" source="1778" target="pC5a80TTFG_IJ3n6PgxR-1848">
          <mxGeometry relative="1" as="geometry" />
        </mxCell>
        <mxCell id="pC5a80TTFG_IJ3n6PgxR-1869" style="edgeStyle=orthogonalEdgeStyle;rounded=0;orthogonalLoop=1;jettySize=auto;html=1;entryX=0;entryY=0.5;entryDx=0;entryDy=0;" edge="1" parent="1" source="1778" target="pC5a80TTFG_IJ3n6PgxR-1849">
          <mxGeometry relative="1" as="geometry" />
        </mxCell>
        <mxCell id="pC5a80TTFG_IJ3n6PgxR-1870" style="edgeStyle=orthogonalEdgeStyle;rounded=0;orthogonalLoop=1;jettySize=auto;html=1;entryX=0;entryY=0.5;entryDx=0;entryDy=0;" edge="1" parent="1" source="1778" target="pC5a80TTFG_IJ3n6PgxR-1850">
          <mxGeometry relative="1" as="geometry" />
        </mxCell>
        <mxCell id="pC5a80TTFG_IJ3n6PgxR-1871" style="edgeStyle=orthogonalEdgeStyle;rounded=0;orthogonalLoop=1;jettySize=auto;html=1;entryX=0;entryY=0.5;entryDx=0;entryDy=0;" edge="1" parent="1" source="1778" target="pC5a80TTFG_IJ3n6PgxR-1851">
          <mxGeometry relative="1" as="geometry" />
        </mxCell>
        <mxCell id="1778" value="Информация от управляющей компании" style="rounded=1;whiteSpace=wrap;html=1;shadow=0;labelBackgroundColor=none;strokeColor=none;strokeWidth=3;fillColor=#61c6ce;fontFamily=Helvetica;fontSize=14;fontColor=#FFFFFF;align=center;spacing=5;fontStyle=0;arcSize=7;perimeterSpacing=2;" parent="1" vertex="1">
          <mxGeometry x="875" y="244.5" width="150" height="60" as="geometry" />
        </mxCell>
        <mxCell id="1779" value="" style="edgeStyle=none;rounded=1;jumpStyle=none;html=1;shadow=0;labelBackgroundColor=none;startArrow=none;startFill=0;jettySize=auto;orthogonalLoop=1;strokeColor=#12AAB5;strokeWidth=3;fontFamily=Helvetica;fontSize=14;fontColor=#FFFFFF;spacing=5;fontStyle=1;fillColor=#b0e3e6;" parent="1" source="1771" target="1778" edge="1">
          <mxGeometry relative="1" as="geometry" />
        </mxCell>
        <mxCell id="pC5a80TTFG_IJ3n6PgxR-1877" style="edgeStyle=orthogonalEdgeStyle;rounded=0;orthogonalLoop=1;jettySize=auto;html=1;" edge="1" parent="1" source="pC5a80TTFG_IJ3n6PgxR-1779" target="pC5a80TTFG_IJ3n6PgxR-1876">
          <mxGeometry relative="1" as="geometry" />
        </mxCell>
        <mxCell id="pC5a80TTFG_IJ3n6PgxR-1779" value="Некачественные данные" style="whiteSpace=wrap;html=1;fontSize=14;fillColor=#f08e81;strokeColor=none;fontColor=#FFFFFF;rounded=1;shadow=0;labelBackgroundColor=none;strokeWidth=3;spacing=5;fontStyle=0;arcSize=7;" vertex="1" parent="1">
          <mxGeometry x="-310" y="247.25" width="120" height="60" as="geometry" />
        </mxCell>
        <mxCell id="pC5a80TTFG_IJ3n6PgxR-1875" style="edgeStyle=orthogonalEdgeStyle;rounded=0;orthogonalLoop=1;jettySize=auto;html=1;entryX=1;entryY=0.5;entryDx=0;entryDy=0;" edge="1" parent="1" source="pC5a80TTFG_IJ3n6PgxR-1782" target="pC5a80TTFG_IJ3n6PgxR-1874">
          <mxGeometry relative="1" as="geometry" />
        </mxCell>
        <mxCell id="pC5a80TTFG_IJ3n6PgxR-1782" value="Искажение" style="whiteSpace=wrap;html=1;fontSize=14;fillColor=#f08e81;strokeColor=none;fontColor=#FFFFFF;rounded=1;shadow=0;labelBackgroundColor=none;strokeWidth=3;spacing=5;fontStyle=0;arcSize=7;" vertex="1" parent="1">
          <mxGeometry x="-310" y="170.5" width="120" height="60" as="geometry" />
        </mxCell>
        <mxCell id="pC5a80TTFG_IJ3n6PgxR-1879" style="edgeStyle=orthogonalEdgeStyle;rounded=0;orthogonalLoop=1;jettySize=auto;html=1;entryX=1;entryY=0.5;entryDx=0;entryDy=0;" edge="1" parent="1" source="pC5a80TTFG_IJ3n6PgxR-1783" target="pC5a80TTFG_IJ3n6PgxR-1878">
          <mxGeometry relative="1" as="geometry" />
        </mxCell>
        <mxCell id="pC5a80TTFG_IJ3n6PgxR-1783" value="Потеря" style="whiteSpace=wrap;html=1;fontSize=14;fillColor=#f08e81;strokeColor=none;fontColor=#FFFFFF;rounded=1;shadow=0;labelBackgroundColor=none;strokeWidth=3;spacing=5;fontStyle=0;arcSize=7;" vertex="1" parent="1">
          <mxGeometry x="-310" y="100" width="120" height="60" as="geometry" />
        </mxCell>
        <mxCell id="pC5a80TTFG_IJ3n6PgxR-1873" value="" style="edgeStyle=orthogonalEdgeStyle;rounded=0;orthogonalLoop=1;jettySize=auto;html=1;" edge="1" parent="1" source="pC5a80TTFG_IJ3n6PgxR-1784" target="pC5a80TTFG_IJ3n6PgxR-1872">
          <mxGeometry relative="1" as="geometry" />
        </mxCell>
        <mxCell id="pC5a80TTFG_IJ3n6PgxR-1784" value="Утечка" style="whiteSpace=wrap;html=1;fontSize=14;fillColor=#f08e81;strokeColor=none;fontColor=#FFFFFF;rounded=1;shadow=0;labelBackgroundColor=none;strokeWidth=3;spacing=5;fontStyle=0;arcSize=7;" vertex="1" parent="1">
          <mxGeometry x="-310" y="30" width="120" height="60" as="geometry" />
        </mxCell>
        <mxCell id="pC5a80TTFG_IJ3n6PgxR-1884" style="edgeStyle=orthogonalEdgeStyle;rounded=0;orthogonalLoop=1;jettySize=auto;html=1;entryX=1;entryY=0.5;entryDx=0;entryDy=0;" edge="1" parent="1" source="pC5a80TTFG_IJ3n6PgxR-1788" target="pC5a80TTFG_IJ3n6PgxR-1883">
          <mxGeometry relative="1" as="geometry" />
        </mxCell>
        <mxCell id="pC5a80TTFG_IJ3n6PgxR-1788" value="Некачественные данные" style="whiteSpace=wrap;html=1;fontSize=14;fillColor=#f08e81;strokeColor=none;fontColor=#FFFFFF;rounded=1;shadow=0;labelBackgroundColor=none;strokeWidth=3;spacing=5;fontStyle=0;arcSize=7;" vertex="1" parent="1">
          <mxGeometry x="-310" y="531.75" width="120" height="60" as="geometry" />
        </mxCell>
        <mxCell id="pC5a80TTFG_IJ3n6PgxR-1885" style="edgeStyle=orthogonalEdgeStyle;rounded=0;orthogonalLoop=1;jettySize=auto;html=1;entryX=1;entryY=0.5;entryDx=0;entryDy=0;" edge="1" parent="1" source="pC5a80TTFG_IJ3n6PgxR-1789" target="pC5a80TTFG_IJ3n6PgxR-1882">
          <mxGeometry relative="1" as="geometry" />
        </mxCell>
        <mxCell id="pC5a80TTFG_IJ3n6PgxR-1789" value="Искажение" style="whiteSpace=wrap;html=1;fontSize=14;fillColor=#f08e81;strokeColor=none;fontColor=#FFFFFF;rounded=1;shadow=0;labelBackgroundColor=none;strokeWidth=3;spacing=5;fontStyle=0;arcSize=7;" vertex="1" parent="1">
          <mxGeometry x="-310" y="455" width="120" height="60" as="geometry" />
        </mxCell>
        <mxCell id="pC5a80TTFG_IJ3n6PgxR-1886" style="edgeStyle=orthogonalEdgeStyle;rounded=0;orthogonalLoop=1;jettySize=auto;html=1;entryX=1;entryY=0.5;entryDx=0;entryDy=0;" edge="1" parent="1" source="pC5a80TTFG_IJ3n6PgxR-1790" target="pC5a80TTFG_IJ3n6PgxR-1881">
          <mxGeometry relative="1" as="geometry" />
        </mxCell>
        <mxCell id="pC5a80TTFG_IJ3n6PgxR-1790" value="Потеря" style="whiteSpace=wrap;html=1;fontSize=14;fillColor=#f08e81;strokeColor=none;fontColor=#FFFFFF;rounded=1;shadow=0;labelBackgroundColor=none;strokeWidth=3;spacing=5;fontStyle=0;arcSize=7;" vertex="1" parent="1">
          <mxGeometry x="-310" y="384.5" width="120" height="60" as="geometry" />
        </mxCell>
        <mxCell id="pC5a80TTFG_IJ3n6PgxR-1887" style="edgeStyle=orthogonalEdgeStyle;rounded=0;orthogonalLoop=1;jettySize=auto;html=1;entryX=1;entryY=0.5;entryDx=0;entryDy=0;" edge="1" parent="1" source="pC5a80TTFG_IJ3n6PgxR-1791" target="pC5a80TTFG_IJ3n6PgxR-1880">
          <mxGeometry relative="1" as="geometry" />
        </mxCell>
        <mxCell id="pC5a80TTFG_IJ3n6PgxR-1791" value="Утечка" style="whiteSpace=wrap;html=1;fontSize=14;fillColor=#f08e81;strokeColor=none;fontColor=#FFFFFF;rounded=1;shadow=0;labelBackgroundColor=none;strokeWidth=3;spacing=5;fontStyle=0;arcSize=7;" vertex="1" parent="1">
          <mxGeometry x="-310" y="314.5" width="120" height="60" as="geometry" />
        </mxCell>
        <mxCell id="pC5a80TTFG_IJ3n6PgxR-1964" style="edgeStyle=orthogonalEdgeStyle;rounded=0;orthogonalLoop=1;jettySize=auto;html=1;" edge="1" parent="1" source="pC5a80TTFG_IJ3n6PgxR-1800" target="pC5a80TTFG_IJ3n6PgxR-1958">
          <mxGeometry relative="1" as="geometry" />
        </mxCell>
        <mxCell id="pC5a80TTFG_IJ3n6PgxR-1800" value="Некачественные данные" style="whiteSpace=wrap;html=1;fontSize=14;fillColor=#64BBE2;strokeColor=none;fontColor=#FFFFFF;rounded=1;shadow=0;labelBackgroundColor=none;strokeWidth=3;spacing=5;fontStyle=0;arcSize=7;" vertex="1" parent="1">
          <mxGeometry x="180" y="810" width="120" height="60" as="geometry" />
        </mxCell>
        <mxCell id="pC5a80TTFG_IJ3n6PgxR-1963" style="edgeStyle=orthogonalEdgeStyle;rounded=0;orthogonalLoop=1;jettySize=auto;html=1;" edge="1" parent="1" source="pC5a80TTFG_IJ3n6PgxR-1801" target="pC5a80TTFG_IJ3n6PgxR-1957">
          <mxGeometry relative="1" as="geometry" />
        </mxCell>
        <mxCell id="pC5a80TTFG_IJ3n6PgxR-1801" value="Искажение" style="whiteSpace=wrap;html=1;fontSize=14;fillColor=#64BBE2;strokeColor=none;fontColor=#FFFFFF;rounded=1;shadow=0;labelBackgroundColor=none;strokeWidth=3;spacing=5;fontStyle=0;arcSize=7;" vertex="1" parent="1">
          <mxGeometry x="50" y="810" width="120" height="60" as="geometry" />
        </mxCell>
        <mxCell id="pC5a80TTFG_IJ3n6PgxR-1947" style="edgeStyle=orthogonalEdgeStyle;rounded=0;orthogonalLoop=1;jettySize=auto;html=1;" edge="1" parent="1" source="pC5a80TTFG_IJ3n6PgxR-1802" target="pC5a80TTFG_IJ3n6PgxR-1945">
          <mxGeometry relative="1" as="geometry" />
        </mxCell>
        <mxCell id="pC5a80TTFG_IJ3n6PgxR-1802" value="Потеря" style="whiteSpace=wrap;html=1;fontSize=14;fillColor=#64BBE2;strokeColor=none;fontColor=#FFFFFF;rounded=1;shadow=0;labelBackgroundColor=none;strokeWidth=3;spacing=5;fontStyle=0;arcSize=7;" vertex="1" parent="1">
          <mxGeometry x="-80" y="810" width="120" height="60" as="geometry" />
        </mxCell>
        <mxCell id="pC5a80TTFG_IJ3n6PgxR-1946" style="edgeStyle=orthogonalEdgeStyle;rounded=0;orthogonalLoop=1;jettySize=auto;html=1;entryX=0.5;entryY=0;entryDx=0;entryDy=0;" edge="1" parent="1" source="pC5a80TTFG_IJ3n6PgxR-1803" target="pC5a80TTFG_IJ3n6PgxR-1944">
          <mxGeometry relative="1" as="geometry" />
        </mxCell>
        <mxCell id="pC5a80TTFG_IJ3n6PgxR-1803" value="Утечка" style="whiteSpace=wrap;html=1;fontSize=14;fillColor=#64BBE2;strokeColor=none;fontColor=#FFFFFF;rounded=1;shadow=0;labelBackgroundColor=none;strokeWidth=3;spacing=5;fontStyle=0;arcSize=7;" vertex="1" parent="1">
          <mxGeometry x="-210" y="810" width="120" height="60" as="geometry" />
        </mxCell>
        <mxCell id="pC5a80TTFG_IJ3n6PgxR-1961" style="edgeStyle=orthogonalEdgeStyle;rounded=0;orthogonalLoop=1;jettySize=auto;html=1;" edge="1" parent="1" source="pC5a80TTFG_IJ3n6PgxR-1808" target="pC5a80TTFG_IJ3n6PgxR-1960">
          <mxGeometry relative="1" as="geometry" />
        </mxCell>
        <mxCell id="pC5a80TTFG_IJ3n6PgxR-1808" value="Некачественные данные" style="whiteSpace=wrap;html=1;fontSize=14;fillColor=#64BBE2;strokeColor=none;fontColor=#FFFFFF;rounded=1;shadow=0;labelBackgroundColor=none;strokeWidth=3;spacing=5;fontStyle=0;arcSize=7;" vertex="1" parent="1">
          <mxGeometry x="705" y="1030" width="120" height="60" as="geometry" />
        </mxCell>
        <mxCell id="pC5a80TTFG_IJ3n6PgxR-1962" style="edgeStyle=orthogonalEdgeStyle;rounded=0;orthogonalLoop=1;jettySize=auto;html=1;" edge="1" parent="1" source="pC5a80TTFG_IJ3n6PgxR-1809" target="pC5a80TTFG_IJ3n6PgxR-1959">
          <mxGeometry relative="1" as="geometry" />
        </mxCell>
        <mxCell id="pC5a80TTFG_IJ3n6PgxR-1809" value="Искажение" style="whiteSpace=wrap;html=1;fontSize=14;fillColor=#64BBE2;strokeColor=none;fontColor=#FFFFFF;rounded=1;shadow=0;labelBackgroundColor=none;strokeWidth=3;spacing=5;fontStyle=0;arcSize=7;" vertex="1" parent="1">
          <mxGeometry x="575" y="1030" width="120" height="60" as="geometry" />
        </mxCell>
        <mxCell id="pC5a80TTFG_IJ3n6PgxR-1943" style="edgeStyle=orthogonalEdgeStyle;rounded=0;orthogonalLoop=1;jettySize=auto;html=1;entryX=0.5;entryY=0;entryDx=0;entryDy=0;" edge="1" parent="1" source="pC5a80TTFG_IJ3n6PgxR-1810" target="pC5a80TTFG_IJ3n6PgxR-1941">
          <mxGeometry relative="1" as="geometry" />
        </mxCell>
        <mxCell id="pC5a80TTFG_IJ3n6PgxR-1810" value="Потеря" style="whiteSpace=wrap;html=1;fontSize=14;fillColor=#64BBE2;strokeColor=none;fontColor=#FFFFFF;rounded=1;shadow=0;labelBackgroundColor=none;strokeWidth=3;spacing=5;fontStyle=0;arcSize=7;" vertex="1" parent="1">
          <mxGeometry x="445" y="1030" width="120" height="60" as="geometry" />
        </mxCell>
        <mxCell id="pC5a80TTFG_IJ3n6PgxR-1942" style="edgeStyle=orthogonalEdgeStyle;rounded=0;orthogonalLoop=1;jettySize=auto;html=1;entryX=0.5;entryY=0;entryDx=0;entryDy=0;" edge="1" parent="1" source="pC5a80TTFG_IJ3n6PgxR-1811" target="pC5a80TTFG_IJ3n6PgxR-1940">
          <mxGeometry relative="1" as="geometry" />
        </mxCell>
        <mxCell id="pC5a80TTFG_IJ3n6PgxR-1811" value="Утечка" style="whiteSpace=wrap;html=1;fontSize=14;fillColor=#64BBE2;strokeColor=none;fontColor=#FFFFFF;rounded=1;shadow=0;labelBackgroundColor=none;strokeWidth=3;spacing=5;fontStyle=0;arcSize=7;" vertex="1" parent="1">
          <mxGeometry x="315" y="1030" width="120" height="60" as="geometry" />
        </mxCell>
        <mxCell id="pC5a80TTFG_IJ3n6PgxR-1953" style="edgeStyle=orthogonalEdgeStyle;rounded=0;orthogonalLoop=1;jettySize=auto;html=1;" edge="1" parent="1" source="pC5a80TTFG_IJ3n6PgxR-1816" target="pC5a80TTFG_IJ3n6PgxR-1951">
          <mxGeometry relative="1" as="geometry" />
        </mxCell>
        <mxCell id="pC5a80TTFG_IJ3n6PgxR-1816" value="Некачественные данные" style="whiteSpace=wrap;html=1;fontSize=14;fillColor=#64BBE2;strokeColor=none;fontColor=#FFFFFF;rounded=1;shadow=0;labelBackgroundColor=none;strokeWidth=3;spacing=5;fontStyle=0;arcSize=7;" vertex="1" parent="1">
          <mxGeometry x="1130" y="810" width="120" height="60" as="geometry" />
        </mxCell>
        <mxCell id="pC5a80TTFG_IJ3n6PgxR-1954" style="edgeStyle=orthogonalEdgeStyle;rounded=0;orthogonalLoop=1;jettySize=auto;html=1;" edge="1" parent="1" source="pC5a80TTFG_IJ3n6PgxR-1817" target="pC5a80TTFG_IJ3n6PgxR-1950">
          <mxGeometry relative="1" as="geometry" />
        </mxCell>
        <mxCell id="pC5a80TTFG_IJ3n6PgxR-1817" value="Искажение" style="whiteSpace=wrap;html=1;fontSize=14;fillColor=#64BBE2;strokeColor=none;fontColor=#FFFFFF;rounded=1;shadow=0;labelBackgroundColor=none;strokeWidth=3;spacing=5;fontStyle=0;arcSize=7;" vertex="1" parent="1">
          <mxGeometry x="1000" y="810" width="120" height="60" as="geometry" />
        </mxCell>
        <mxCell id="pC5a80TTFG_IJ3n6PgxR-1955" style="edgeStyle=orthogonalEdgeStyle;rounded=0;orthogonalLoop=1;jettySize=auto;html=1;" edge="1" parent="1" source="pC5a80TTFG_IJ3n6PgxR-1818" target="pC5a80TTFG_IJ3n6PgxR-1949">
          <mxGeometry relative="1" as="geometry" />
        </mxCell>
        <mxCell id="pC5a80TTFG_IJ3n6PgxR-1818" value="Потеря" style="whiteSpace=wrap;html=1;fontSize=14;fillColor=#64BBE2;strokeColor=none;fontColor=#FFFFFF;rounded=1;shadow=0;labelBackgroundColor=none;strokeWidth=3;spacing=5;fontStyle=0;arcSize=7;" vertex="1" parent="1">
          <mxGeometry x="870" y="810" width="120" height="60" as="geometry" />
        </mxCell>
        <mxCell id="pC5a80TTFG_IJ3n6PgxR-1956" style="edgeStyle=orthogonalEdgeStyle;rounded=0;orthogonalLoop=1;jettySize=auto;html=1;" edge="1" parent="1" source="pC5a80TTFG_IJ3n6PgxR-1819" target="pC5a80TTFG_IJ3n6PgxR-1948">
          <mxGeometry relative="1" as="geometry" />
        </mxCell>
        <mxCell id="pC5a80TTFG_IJ3n6PgxR-1819" value="Утечка" style="whiteSpace=wrap;html=1;fontSize=14;fillColor=#64BBE2;strokeColor=none;fontColor=#FFFFFF;rounded=1;shadow=0;labelBackgroundColor=none;strokeWidth=3;spacing=5;fontStyle=0;arcSize=7;" vertex="1" parent="1">
          <mxGeometry x="740" y="810" width="120" height="60" as="geometry" />
        </mxCell>
        <mxCell id="pC5a80TTFG_IJ3n6PgxR-1895" style="edgeStyle=orthogonalEdgeStyle;rounded=0;orthogonalLoop=1;jettySize=auto;html=1;entryX=0.5;entryY=1;entryDx=0;entryDy=0;" edge="1" parent="1" source="pC5a80TTFG_IJ3n6PgxR-1824" target="pC5a80TTFG_IJ3n6PgxR-1894">
          <mxGeometry relative="1" as="geometry" />
        </mxCell>
        <mxCell id="pC5a80TTFG_IJ3n6PgxR-1824" value="Некачественные данные" style="whiteSpace=wrap;html=1;fontSize=14;fillColor=#F5AF58;strokeColor=none;fontColor=#FFFFFF;rounded=1;shadow=0;labelBackgroundColor=none;strokeWidth=3;spacing=5;fontStyle=0;arcSize=7;" vertex="1" parent="1">
          <mxGeometry x="175" y="-270" width="120" height="60" as="geometry" />
        </mxCell>
        <mxCell id="pC5a80TTFG_IJ3n6PgxR-1893" style="edgeStyle=orthogonalEdgeStyle;rounded=0;orthogonalLoop=1;jettySize=auto;html=1;entryX=0.5;entryY=1;entryDx=0;entryDy=0;" edge="1" parent="1" source="pC5a80TTFG_IJ3n6PgxR-1825" target="pC5a80TTFG_IJ3n6PgxR-1892">
          <mxGeometry relative="1" as="geometry" />
        </mxCell>
        <mxCell id="pC5a80TTFG_IJ3n6PgxR-1825" value="Искажение" style="whiteSpace=wrap;html=1;fontSize=14;fillColor=#F5AF58;strokeColor=none;fontColor=#FFFFFF;rounded=1;shadow=0;labelBackgroundColor=none;strokeWidth=3;spacing=5;fontStyle=0;arcSize=7;" vertex="1" parent="1">
          <mxGeometry x="45" y="-270" width="120" height="60" as="geometry" />
        </mxCell>
        <mxCell id="pC5a80TTFG_IJ3n6PgxR-1891" style="edgeStyle=orthogonalEdgeStyle;rounded=0;orthogonalLoop=1;jettySize=auto;html=1;entryX=0.5;entryY=1;entryDx=0;entryDy=0;" edge="1" parent="1" source="pC5a80TTFG_IJ3n6PgxR-1826" target="pC5a80TTFG_IJ3n6PgxR-1890">
          <mxGeometry relative="1" as="geometry" />
        </mxCell>
        <mxCell id="pC5a80TTFG_IJ3n6PgxR-1826" value="Потеря" style="whiteSpace=wrap;html=1;fontSize=14;fillColor=#F5AF58;strokeColor=none;fontColor=#FFFFFF;rounded=1;shadow=0;labelBackgroundColor=none;strokeWidth=3;spacing=5;fontStyle=0;arcSize=7;" vertex="1" parent="1">
          <mxGeometry x="-85" y="-270" width="120" height="60" as="geometry" />
        </mxCell>
        <mxCell id="pC5a80TTFG_IJ3n6PgxR-1889" style="edgeStyle=orthogonalEdgeStyle;rounded=0;orthogonalLoop=1;jettySize=auto;html=1;entryX=0.5;entryY=1;entryDx=0;entryDy=0;" edge="1" parent="1" source="pC5a80TTFG_IJ3n6PgxR-1827" target="pC5a80TTFG_IJ3n6PgxR-1888">
          <mxGeometry relative="1" as="geometry" />
        </mxCell>
        <mxCell id="pC5a80TTFG_IJ3n6PgxR-1827" value="Утечка" style="whiteSpace=wrap;html=1;fontSize=14;fillColor=#F5AF58;strokeColor=none;fontColor=#FFFFFF;rounded=1;shadow=0;labelBackgroundColor=none;strokeWidth=3;spacing=5;fontStyle=0;arcSize=7;" vertex="1" parent="1">
          <mxGeometry x="-215" y="-270" width="120" height="60" as="geometry" />
        </mxCell>
        <mxCell id="pC5a80TTFG_IJ3n6PgxR-1903" style="edgeStyle=orthogonalEdgeStyle;rounded=0;orthogonalLoop=1;jettySize=auto;html=1;entryX=0.5;entryY=1;entryDx=0;entryDy=0;" edge="1" parent="1" source="pC5a80TTFG_IJ3n6PgxR-1828" target="pC5a80TTFG_IJ3n6PgxR-1899">
          <mxGeometry relative="1" as="geometry" />
        </mxCell>
        <mxCell id="pC5a80TTFG_IJ3n6PgxR-1828" value="Некачественные данные" style="whiteSpace=wrap;html=1;fontSize=14;fillColor=#F5AF58;strokeColor=none;fontColor=#FFFFFF;rounded=1;shadow=0;labelBackgroundColor=none;strokeWidth=3;spacing=5;fontStyle=0;arcSize=7;" vertex="1" parent="1">
          <mxGeometry x="700" y="-150" width="120" height="60" as="geometry" />
        </mxCell>
        <mxCell id="pC5a80TTFG_IJ3n6PgxR-1902" style="edgeStyle=orthogonalEdgeStyle;rounded=0;orthogonalLoop=1;jettySize=auto;html=1;entryX=0.5;entryY=1;entryDx=0;entryDy=0;" edge="1" parent="1" source="pC5a80TTFG_IJ3n6PgxR-1829" target="pC5a80TTFG_IJ3n6PgxR-1898">
          <mxGeometry relative="1" as="geometry" />
        </mxCell>
        <mxCell id="pC5a80TTFG_IJ3n6PgxR-1829" value="Искажение" style="whiteSpace=wrap;html=1;fontSize=14;fillColor=#F5AF58;strokeColor=none;fontColor=#FFFFFF;rounded=1;shadow=0;labelBackgroundColor=none;strokeWidth=3;spacing=5;fontStyle=0;arcSize=7;" vertex="1" parent="1">
          <mxGeometry x="570" y="-150" width="120" height="60" as="geometry" />
        </mxCell>
        <mxCell id="pC5a80TTFG_IJ3n6PgxR-1901" style="edgeStyle=orthogonalEdgeStyle;rounded=0;orthogonalLoop=1;jettySize=auto;html=1;entryX=0.5;entryY=1;entryDx=0;entryDy=0;" edge="1" parent="1" source="pC5a80TTFG_IJ3n6PgxR-1830" target="pC5a80TTFG_IJ3n6PgxR-1897">
          <mxGeometry relative="1" as="geometry" />
        </mxCell>
        <mxCell id="pC5a80TTFG_IJ3n6PgxR-1830" value="Потеря" style="whiteSpace=wrap;html=1;fontSize=14;fillColor=#F5AF58;strokeColor=none;fontColor=#FFFFFF;rounded=1;shadow=0;labelBackgroundColor=none;strokeWidth=3;spacing=5;fontStyle=0;arcSize=7;" vertex="1" parent="1">
          <mxGeometry x="440" y="-150" width="120" height="60" as="geometry" />
        </mxCell>
        <mxCell id="pC5a80TTFG_IJ3n6PgxR-1900" style="edgeStyle=orthogonalEdgeStyle;rounded=0;orthogonalLoop=1;jettySize=auto;html=1;entryX=0.5;entryY=1;entryDx=0;entryDy=0;" edge="1" parent="1" source="pC5a80TTFG_IJ3n6PgxR-1831" target="pC5a80TTFG_IJ3n6PgxR-1896">
          <mxGeometry relative="1" as="geometry" />
        </mxCell>
        <mxCell id="pC5a80TTFG_IJ3n6PgxR-1831" value="Утечка" style="whiteSpace=wrap;html=1;fontSize=14;fillColor=#F5AF58;strokeColor=none;fontColor=#FFFFFF;rounded=1;shadow=0;labelBackgroundColor=none;strokeWidth=3;spacing=5;fontStyle=0;arcSize=7;" vertex="1" parent="1">
          <mxGeometry x="310" y="-150" width="120" height="60" as="geometry" />
        </mxCell>
        <mxCell id="pC5a80TTFG_IJ3n6PgxR-1911" style="edgeStyle=orthogonalEdgeStyle;rounded=0;orthogonalLoop=1;jettySize=auto;html=1;entryX=0.5;entryY=1;entryDx=0;entryDy=0;" edge="1" parent="1" source="pC5a80TTFG_IJ3n6PgxR-1832" target="pC5a80TTFG_IJ3n6PgxR-1907">
          <mxGeometry relative="1" as="geometry" />
        </mxCell>
        <mxCell id="pC5a80TTFG_IJ3n6PgxR-1832" value="Некачественные данные" style="whiteSpace=wrap;html=1;fontSize=14;fillColor=#F5AF58;strokeColor=none;fontColor=#FFFFFF;rounded=1;shadow=0;labelBackgroundColor=none;strokeWidth=3;spacing=5;fontStyle=0;arcSize=7;" vertex="1" parent="1">
          <mxGeometry x="1235" y="-270" width="120" height="60" as="geometry" />
        </mxCell>
        <mxCell id="pC5a80TTFG_IJ3n6PgxR-1910" style="edgeStyle=orthogonalEdgeStyle;rounded=0;orthogonalLoop=1;jettySize=auto;html=1;entryX=0.5;entryY=1;entryDx=0;entryDy=0;" edge="1" parent="1" source="pC5a80TTFG_IJ3n6PgxR-1833" target="pC5a80TTFG_IJ3n6PgxR-1906">
          <mxGeometry relative="1" as="geometry" />
        </mxCell>
        <mxCell id="pC5a80TTFG_IJ3n6PgxR-1833" value="Искажение" style="whiteSpace=wrap;html=1;fontSize=14;fillColor=#F5AF58;strokeColor=none;fontColor=#FFFFFF;rounded=1;shadow=0;labelBackgroundColor=none;strokeWidth=3;spacing=5;fontStyle=0;arcSize=7;" vertex="1" parent="1">
          <mxGeometry x="1105" y="-270" width="120" height="60" as="geometry" />
        </mxCell>
        <mxCell id="pC5a80TTFG_IJ3n6PgxR-1909" style="edgeStyle=orthogonalEdgeStyle;rounded=0;orthogonalLoop=1;jettySize=auto;html=1;" edge="1" parent="1" source="pC5a80TTFG_IJ3n6PgxR-1834" target="pC5a80TTFG_IJ3n6PgxR-1905">
          <mxGeometry relative="1" as="geometry" />
        </mxCell>
        <mxCell id="pC5a80TTFG_IJ3n6PgxR-1834" value="Потеря" style="whiteSpace=wrap;html=1;fontSize=14;fillColor=#F5AF58;strokeColor=none;fontColor=#FFFFFF;rounded=1;shadow=0;labelBackgroundColor=none;strokeWidth=3;spacing=5;fontStyle=0;arcSize=7;" vertex="1" parent="1">
          <mxGeometry x="975" y="-270" width="120" height="60" as="geometry" />
        </mxCell>
        <mxCell id="pC5a80TTFG_IJ3n6PgxR-1908" style="edgeStyle=orthogonalEdgeStyle;rounded=0;orthogonalLoop=1;jettySize=auto;html=1;entryX=0.5;entryY=1;entryDx=0;entryDy=0;" edge="1" parent="1" source="pC5a80TTFG_IJ3n6PgxR-1835">
          <mxGeometry relative="1" as="geometry">
            <mxPoint x="905" y="-340" as="targetPoint" />
          </mxGeometry>
        </mxCell>
        <mxCell id="pC5a80TTFG_IJ3n6PgxR-1835" value="Утечка" style="whiteSpace=wrap;html=1;fontSize=14;fillColor=#F5AF58;strokeColor=none;fontColor=#FFFFFF;rounded=1;shadow=0;labelBackgroundColor=none;strokeWidth=3;spacing=5;fontStyle=0;arcSize=7;" vertex="1" parent="1">
          <mxGeometry x="845" y="-270" width="120" height="60" as="geometry" />
        </mxCell>
        <mxCell id="pC5a80TTFG_IJ3n6PgxR-1917" style="edgeStyle=orthogonalEdgeStyle;rounded=0;orthogonalLoop=1;jettySize=auto;html=1;entryX=0;entryY=0.5;entryDx=0;entryDy=0;" edge="1" parent="1" source="pC5a80TTFG_IJ3n6PgxR-1848" target="pC5a80TTFG_IJ3n6PgxR-1916">
          <mxGeometry relative="1" as="geometry" />
        </mxCell>
        <mxCell id="pC5a80TTFG_IJ3n6PgxR-1848" value="Некачественные данные" style="whiteSpace=wrap;html=1;fontSize=14;fillColor=#61C6CE;strokeColor=none;fontColor=#FFFFFF;rounded=1;shadow=0;labelBackgroundColor=none;strokeWidth=3;spacing=5;fontStyle=0;arcSize=7;" vertex="1" parent="1">
          <mxGeometry x="1180" y="184.5" width="120" height="60" as="geometry" />
        </mxCell>
        <mxCell id="pC5a80TTFG_IJ3n6PgxR-1918" style="edgeStyle=orthogonalEdgeStyle;rounded=0;orthogonalLoop=1;jettySize=auto;html=1;entryX=0;entryY=0.5;entryDx=0;entryDy=0;" edge="1" parent="1" source="pC5a80TTFG_IJ3n6PgxR-1849" target="pC5a80TTFG_IJ3n6PgxR-1913">
          <mxGeometry relative="1" as="geometry" />
        </mxCell>
        <mxCell id="pC5a80TTFG_IJ3n6PgxR-1849" value="Искажение" style="whiteSpace=wrap;html=1;fontSize=14;fillColor=#61C6CE;strokeColor=none;fontColor=#FFFFFF;rounded=1;shadow=0;labelBackgroundColor=none;strokeWidth=3;spacing=5;fontStyle=0;arcSize=7;" vertex="1" parent="1">
          <mxGeometry x="1180" y="107.75" width="120" height="60" as="geometry" />
        </mxCell>
        <mxCell id="pC5a80TTFG_IJ3n6PgxR-1919" style="edgeStyle=orthogonalEdgeStyle;rounded=0;orthogonalLoop=1;jettySize=auto;html=1;" edge="1" parent="1" source="pC5a80TTFG_IJ3n6PgxR-1850" target="pC5a80TTFG_IJ3n6PgxR-1914">
          <mxGeometry relative="1" as="geometry" />
        </mxCell>
        <mxCell id="pC5a80TTFG_IJ3n6PgxR-1850" value="Потеря" style="whiteSpace=wrap;html=1;fontSize=14;fillColor=#61C6CE;strokeColor=none;fontColor=#FFFFFF;rounded=1;shadow=0;labelBackgroundColor=none;strokeWidth=3;spacing=5;fontStyle=0;arcSize=7;" vertex="1" parent="1">
          <mxGeometry x="1180" y="37.24999999999999" width="120" height="60" as="geometry" />
        </mxCell>
        <mxCell id="pC5a80TTFG_IJ3n6PgxR-1920" style="edgeStyle=orthogonalEdgeStyle;rounded=0;orthogonalLoop=1;jettySize=auto;html=1;entryX=0;entryY=0.5;entryDx=0;entryDy=0;" edge="1" parent="1" source="pC5a80TTFG_IJ3n6PgxR-1851" target="pC5a80TTFG_IJ3n6PgxR-1915">
          <mxGeometry relative="1" as="geometry" />
        </mxCell>
        <mxCell id="pC5a80TTFG_IJ3n6PgxR-1851" value="Утечка" style="whiteSpace=wrap;html=1;fontSize=14;fillColor=#61C6CE;strokeColor=none;fontColor=#FFFFFF;rounded=1;shadow=0;labelBackgroundColor=none;strokeWidth=3;spacing=5;fontStyle=0;arcSize=7;" vertex="1" parent="1">
          <mxGeometry x="1180" y="-32.75" width="120" height="60" as="geometry" />
        </mxCell>
        <mxCell id="pC5a80TTFG_IJ3n6PgxR-1939" style="edgeStyle=orthogonalEdgeStyle;rounded=0;orthogonalLoop=1;jettySize=auto;html=1;" edge="1" parent="1" source="pC5a80TTFG_IJ3n6PgxR-1852" target="pC5a80TTFG_IJ3n6PgxR-1935">
          <mxGeometry relative="1" as="geometry" />
        </mxCell>
        <mxCell id="pC5a80TTFG_IJ3n6PgxR-1852" value="Некачественные данные" style="whiteSpace=wrap;html=1;fontSize=14;fillColor=#61C6CE;strokeColor=none;fontColor=#FFFFFF;rounded=1;shadow=0;labelBackgroundColor=none;strokeWidth=3;spacing=5;fontStyle=0;arcSize=7;" vertex="1" parent="1">
          <mxGeometry x="1230" y="737.25" width="120" height="60" as="geometry" />
        </mxCell>
        <mxCell id="pC5a80TTFG_IJ3n6PgxR-1938" style="edgeStyle=orthogonalEdgeStyle;rounded=0;orthogonalLoop=1;jettySize=auto;html=1;" edge="1" parent="1" source="pC5a80TTFG_IJ3n6PgxR-1853" target="pC5a80TTFG_IJ3n6PgxR-1934">
          <mxGeometry relative="1" as="geometry" />
        </mxCell>
        <mxCell id="pC5a80TTFG_IJ3n6PgxR-1853" value="Искажение" style="whiteSpace=wrap;html=1;fontSize=14;fillColor=#61C6CE;strokeColor=none;fontColor=#FFFFFF;rounded=1;shadow=0;labelBackgroundColor=none;strokeWidth=3;spacing=5;fontStyle=0;arcSize=7;" vertex="1" parent="1">
          <mxGeometry x="1230" y="660.5" width="120" height="60" as="geometry" />
        </mxCell>
        <mxCell id="pC5a80TTFG_IJ3n6PgxR-1937" style="edgeStyle=orthogonalEdgeStyle;rounded=0;orthogonalLoop=1;jettySize=auto;html=1;" edge="1" parent="1" source="pC5a80TTFG_IJ3n6PgxR-1854" target="pC5a80TTFG_IJ3n6PgxR-1933">
          <mxGeometry relative="1" as="geometry" />
        </mxCell>
        <mxCell id="pC5a80TTFG_IJ3n6PgxR-1854" value="Потеря" style="whiteSpace=wrap;html=1;fontSize=14;fillColor=#61C6CE;strokeColor=none;fontColor=#FFFFFF;rounded=1;shadow=0;labelBackgroundColor=none;strokeWidth=3;spacing=5;fontStyle=0;arcSize=7;" vertex="1" parent="1">
          <mxGeometry x="1230" y="590" width="120" height="60" as="geometry" />
        </mxCell>
        <mxCell id="pC5a80TTFG_IJ3n6PgxR-1936" style="edgeStyle=orthogonalEdgeStyle;rounded=0;orthogonalLoop=1;jettySize=auto;html=1;" edge="1" parent="1" source="pC5a80TTFG_IJ3n6PgxR-1855" target="pC5a80TTFG_IJ3n6PgxR-1932">
          <mxGeometry relative="1" as="geometry" />
        </mxCell>
        <mxCell id="pC5a80TTFG_IJ3n6PgxR-1855" value="Утечка" style="whiteSpace=wrap;html=1;fontSize=14;fillColor=#61C6CE;strokeColor=none;fontColor=#FFFFFF;rounded=1;shadow=0;labelBackgroundColor=none;strokeWidth=3;spacing=5;fontStyle=0;arcSize=7;" vertex="1" parent="1">
          <mxGeometry x="1230" y="520" width="120" height="60" as="geometry" />
        </mxCell>
        <mxCell id="pC5a80TTFG_IJ3n6PgxR-1931" style="edgeStyle=orthogonalEdgeStyle;rounded=0;orthogonalLoop=1;jettySize=auto;html=1;" edge="1" parent="1" source="pC5a80TTFG_IJ3n6PgxR-1856" target="pC5a80TTFG_IJ3n6PgxR-1924">
          <mxGeometry relative="1" as="geometry" />
        </mxCell>
        <mxCell id="pC5a80TTFG_IJ3n6PgxR-1856" value="Некачественные данные" style="whiteSpace=wrap;html=1;fontSize=14;fillColor=#61C6CE;strokeColor=none;fontColor=#FFFFFF;rounded=1;shadow=0;labelBackgroundColor=none;strokeWidth=3;spacing=5;fontStyle=0;arcSize=7;" vertex="1" parent="1">
          <mxGeometry x="1490" y="447.75" width="120" height="60" as="geometry" />
        </mxCell>
        <mxCell id="pC5a80TTFG_IJ3n6PgxR-1930" style="edgeStyle=orthogonalEdgeStyle;rounded=0;orthogonalLoop=1;jettySize=auto;html=1;" edge="1" parent="1" source="pC5a80TTFG_IJ3n6PgxR-1857" target="pC5a80TTFG_IJ3n6PgxR-1925">
          <mxGeometry relative="1" as="geometry" />
        </mxCell>
        <mxCell id="pC5a80TTFG_IJ3n6PgxR-1857" value="Искажение" style="whiteSpace=wrap;html=1;fontSize=14;fillColor=#61C6CE;strokeColor=none;fontColor=#FFFFFF;rounded=1;shadow=0;labelBackgroundColor=none;strokeWidth=3;spacing=5;fontStyle=0;arcSize=7;" vertex="1" parent="1">
          <mxGeometry x="1490" y="371" width="120" height="60" as="geometry" />
        </mxCell>
        <mxCell id="pC5a80TTFG_IJ3n6PgxR-1929" style="edgeStyle=orthogonalEdgeStyle;rounded=0;orthogonalLoop=1;jettySize=auto;html=1;entryX=0;entryY=0.5;entryDx=0;entryDy=0;" edge="1" parent="1" source="pC5a80TTFG_IJ3n6PgxR-1858" target="pC5a80TTFG_IJ3n6PgxR-1922">
          <mxGeometry relative="1" as="geometry" />
        </mxCell>
        <mxCell id="pC5a80TTFG_IJ3n6PgxR-1858" value="Потеря" style="whiteSpace=wrap;html=1;fontSize=14;fillColor=#61C6CE;strokeColor=none;fontColor=#FFFFFF;rounded=1;shadow=0;labelBackgroundColor=none;strokeWidth=3;spacing=5;fontStyle=0;arcSize=7;" vertex="1" parent="1">
          <mxGeometry x="1490" y="300.5" width="120" height="60" as="geometry" />
        </mxCell>
        <mxCell id="pC5a80TTFG_IJ3n6PgxR-1927" style="edgeStyle=orthogonalEdgeStyle;rounded=0;orthogonalLoop=1;jettySize=auto;html=1;entryX=0;entryY=0.5;entryDx=0;entryDy=0;" edge="1" parent="1" source="pC5a80TTFG_IJ3n6PgxR-1859" target="pC5a80TTFG_IJ3n6PgxR-1921">
          <mxGeometry relative="1" as="geometry" />
        </mxCell>
        <mxCell id="pC5a80TTFG_IJ3n6PgxR-1859" value="Утечка" style="whiteSpace=wrap;html=1;fontSize=14;fillColor=#61C6CE;strokeColor=none;fontColor=#FFFFFF;rounded=1;shadow=0;labelBackgroundColor=none;strokeWidth=3;spacing=5;fontStyle=0;arcSize=7;" vertex="1" parent="1">
          <mxGeometry x="1490" y="230.5" width="120" height="60" as="geometry" />
        </mxCell>
        <mxCell id="pC5a80TTFG_IJ3n6PgxR-1872" value="Критический" style="whiteSpace=wrap;html=1;fontSize=14;fillColor=#FF3333;strokeColor=none;fontColor=#FFFFFF;rounded=1;shadow=0;labelBackgroundColor=none;strokeWidth=3;spacing=5;fontStyle=0;arcSize=7;" vertex="1" parent="1">
          <mxGeometry x="-510" y="30" width="120" height="60" as="geometry" />
        </mxCell>
        <mxCell id="pC5a80TTFG_IJ3n6PgxR-1874" value="Критический" style="whiteSpace=wrap;html=1;fontSize=14;fillColor=#FF3333;strokeColor=none;fontColor=#FFFFFF;rounded=1;shadow=0;labelBackgroundColor=none;strokeWidth=3;spacing=5;fontStyle=0;arcSize=7;" vertex="1" parent="1">
          <mxGeometry x="-510" y="170.5" width="120" height="60" as="geometry" />
        </mxCell>
        <mxCell id="pC5a80TTFG_IJ3n6PgxR-1876" value="Критический" style="whiteSpace=wrap;html=1;fontSize=14;fillColor=#FF3333;strokeColor=none;fontColor=#FFFFFF;rounded=1;shadow=0;labelBackgroundColor=none;strokeWidth=3;spacing=5;fontStyle=0;arcSize=7;" vertex="1" parent="1">
          <mxGeometry x="-510" y="247.25" width="120" height="60" as="geometry" />
        </mxCell>
        <mxCell id="pC5a80TTFG_IJ3n6PgxR-1878" value="Критический" style="whiteSpace=wrap;html=1;fontSize=14;fillColor=#FF3333;strokeColor=none;fontColor=#FFFFFF;rounded=1;shadow=0;labelBackgroundColor=none;strokeWidth=3;spacing=5;fontStyle=0;arcSize=7;" vertex="1" parent="1">
          <mxGeometry x="-510" y="100" width="120" height="60" as="geometry" />
        </mxCell>
        <mxCell id="pC5a80TTFG_IJ3n6PgxR-1880" value="Критический" style="whiteSpace=wrap;html=1;fontSize=14;fillColor=#FF3333;strokeColor=none;fontColor=#FFFFFF;rounded=1;shadow=0;labelBackgroundColor=none;strokeWidth=3;spacing=5;fontStyle=0;arcSize=7;" vertex="1" parent="1">
          <mxGeometry x="-510" y="314.5" width="120" height="60" as="geometry" />
        </mxCell>
        <mxCell id="pC5a80TTFG_IJ3n6PgxR-1881" value="Критический" style="whiteSpace=wrap;html=1;fontSize=14;fillColor=#FF3333;strokeColor=none;fontColor=#FFFFFF;rounded=1;shadow=0;labelBackgroundColor=none;strokeWidth=3;spacing=5;fontStyle=0;arcSize=7;" vertex="1" parent="1">
          <mxGeometry x="-510" y="384.5" width="120" height="60" as="geometry" />
        </mxCell>
        <mxCell id="pC5a80TTFG_IJ3n6PgxR-1882" value="Критический" style="whiteSpace=wrap;html=1;fontSize=14;fillColor=#FF3333;strokeColor=none;fontColor=#FFFFFF;rounded=1;shadow=0;labelBackgroundColor=none;strokeWidth=3;spacing=5;fontStyle=0;arcSize=7;" vertex="1" parent="1">
          <mxGeometry x="-510" y="455" width="120" height="60" as="geometry" />
        </mxCell>
        <mxCell id="pC5a80TTFG_IJ3n6PgxR-1883" value="Критический" style="whiteSpace=wrap;html=1;fontSize=14;fillColor=#FF3333;strokeColor=none;fontColor=#FFFFFF;rounded=1;shadow=0;labelBackgroundColor=none;strokeWidth=3;spacing=5;fontStyle=0;arcSize=7;" vertex="1" parent="1">
          <mxGeometry x="-510" y="531.75" width="120" height="60" as="geometry" />
        </mxCell>
        <mxCell id="pC5a80TTFG_IJ3n6PgxR-1888" value="Не значительный" style="whiteSpace=wrap;html=1;fontSize=14;fillColor=#CCFF99;strokeColor=none;fontColor=#000000;rounded=1;shadow=0;labelBackgroundColor=none;strokeWidth=3;spacing=5;fontStyle=0;arcSize=7;" vertex="1" parent="1">
          <mxGeometry x="-215" y="-400" width="120" height="60" as="geometry" />
        </mxCell>
        <mxCell id="pC5a80TTFG_IJ3n6PgxR-1890" value="Значительный" style="whiteSpace=wrap;html=1;fontSize=14;fillColor=#FF8000;strokeColor=none;fontColor=#FFFFFF;rounded=1;shadow=0;labelBackgroundColor=none;strokeWidth=3;spacing=5;fontStyle=0;arcSize=7;" vertex="1" parent="1">
          <mxGeometry x="-85" y="-400" width="120" height="60" as="geometry" />
        </mxCell>
        <mxCell id="pC5a80TTFG_IJ3n6PgxR-1892" value="Значительный" style="whiteSpace=wrap;html=1;fontSize=14;fillColor=#FF8000;strokeColor=none;fontColor=#FFFFFF;rounded=1;shadow=0;labelBackgroundColor=none;strokeWidth=3;spacing=5;fontStyle=0;arcSize=7;" vertex="1" parent="1">
          <mxGeometry x="45" y="-400" width="120" height="60" as="geometry" />
        </mxCell>
        <mxCell id="pC5a80TTFG_IJ3n6PgxR-1894" value="Значительный" style="whiteSpace=wrap;html=1;fontSize=14;fillColor=#FF8000;strokeColor=none;fontColor=#FFFFFF;rounded=1;shadow=0;labelBackgroundColor=none;strokeWidth=3;spacing=5;fontStyle=0;arcSize=7;" vertex="1" parent="1">
          <mxGeometry x="175" y="-400" width="120" height="60" as="geometry" />
        </mxCell>
        <mxCell id="pC5a80TTFG_IJ3n6PgxR-1896" value="Не значительный" style="whiteSpace=wrap;html=1;fontSize=14;fillColor=#CCFF99;strokeColor=none;fontColor=#000000;rounded=1;shadow=0;labelBackgroundColor=none;strokeWidth=3;spacing=5;fontStyle=0;arcSize=7;" vertex="1" parent="1">
          <mxGeometry x="310" y="-400" width="120" height="60" as="geometry" />
        </mxCell>
        <mxCell id="pC5a80TTFG_IJ3n6PgxR-1897" value="Значительный" style="whiteSpace=wrap;html=1;fontSize=14;fillColor=#FF8000;strokeColor=none;fontColor=#FFFFFF;rounded=1;shadow=0;labelBackgroundColor=none;strokeWidth=3;spacing=5;fontStyle=0;arcSize=7;" vertex="1" parent="1">
          <mxGeometry x="440" y="-400" width="120" height="60" as="geometry" />
        </mxCell>
        <mxCell id="pC5a80TTFG_IJ3n6PgxR-1898" value="Значительный" style="whiteSpace=wrap;html=1;fontSize=14;fillColor=#FF8000;strokeColor=none;fontColor=#FFFFFF;rounded=1;shadow=0;labelBackgroundColor=none;strokeWidth=3;spacing=5;fontStyle=0;arcSize=7;" vertex="1" parent="1">
          <mxGeometry x="570" y="-400" width="120" height="60" as="geometry" />
        </mxCell>
        <mxCell id="pC5a80TTFG_IJ3n6PgxR-1899" value="Значительный" style="whiteSpace=wrap;html=1;fontSize=14;fillColor=#FF8000;strokeColor=none;fontColor=#FFFFFF;rounded=1;shadow=0;labelBackgroundColor=none;strokeWidth=3;spacing=5;fontStyle=0;arcSize=7;" vertex="1" parent="1">
          <mxGeometry x="700" y="-400" width="120" height="60" as="geometry" />
        </mxCell>
        <mxCell id="pC5a80TTFG_IJ3n6PgxR-1905" value="Значительный" style="whiteSpace=wrap;html=1;fontSize=14;fillColor=#FF8000;strokeColor=none;fontColor=#FFFFFF;rounded=1;shadow=0;labelBackgroundColor=none;strokeWidth=3;spacing=5;fontStyle=0;arcSize=7;" vertex="1" parent="1">
          <mxGeometry x="975" y="-400" width="120" height="60" as="geometry" />
        </mxCell>
        <mxCell id="pC5a80TTFG_IJ3n6PgxR-1906" value="Значительный" style="whiteSpace=wrap;html=1;fontSize=14;fillColor=#FF8000;strokeColor=none;fontColor=#FFFFFF;rounded=1;shadow=0;labelBackgroundColor=none;strokeWidth=3;spacing=5;fontStyle=0;arcSize=7;" vertex="1" parent="1">
          <mxGeometry x="1105" y="-400" width="120" height="60" as="geometry" />
        </mxCell>
        <mxCell id="pC5a80TTFG_IJ3n6PgxR-1907" value="Значительный" style="whiteSpace=wrap;html=1;fontSize=14;fillColor=#FF8000;strokeColor=none;fontColor=#FFFFFF;rounded=1;shadow=0;labelBackgroundColor=none;strokeWidth=3;spacing=5;fontStyle=0;arcSize=7;" vertex="1" parent="1">
          <mxGeometry x="1235" y="-400" width="120" height="60" as="geometry" />
        </mxCell>
        <mxCell id="pC5a80TTFG_IJ3n6PgxR-1912" value="Значительный" style="whiteSpace=wrap;html=1;fontSize=14;fillColor=#FF8000;strokeColor=none;fontColor=#FFFFFF;rounded=1;shadow=0;labelBackgroundColor=none;strokeWidth=3;spacing=5;fontStyle=0;arcSize=7;" vertex="1" parent="1">
          <mxGeometry x="845" y="-400" width="120" height="60" as="geometry" />
        </mxCell>
        <mxCell id="pC5a80TTFG_IJ3n6PgxR-1913" value="Значительный" style="whiteSpace=wrap;html=1;fontSize=14;fillColor=#FF8000;strokeColor=none;fontColor=#FFFFFF;rounded=1;shadow=0;labelBackgroundColor=none;strokeWidth=3;spacing=5;fontStyle=0;arcSize=7;" vertex="1" parent="1">
          <mxGeometry x="1330" y="107.75" width="120" height="60" as="geometry" />
        </mxCell>
        <mxCell id="pC5a80TTFG_IJ3n6PgxR-1914" value="Критический" style="whiteSpace=wrap;html=1;fontSize=14;fillColor=#FF3333;strokeColor=none;fontColor=#FFFFFF;rounded=1;shadow=0;labelBackgroundColor=none;strokeWidth=3;spacing=5;fontStyle=0;arcSize=7;" vertex="1" parent="1">
          <mxGeometry x="1330" y="37.25" width="120" height="60" as="geometry" />
        </mxCell>
        <mxCell id="pC5a80TTFG_IJ3n6PgxR-1915" value="Критический" style="whiteSpace=wrap;html=1;fontSize=14;fillColor=#FF3333;strokeColor=none;fontColor=#FFFFFF;rounded=1;shadow=0;labelBackgroundColor=none;strokeWidth=3;spacing=5;fontStyle=0;arcSize=7;" vertex="1" parent="1">
          <mxGeometry x="1330" y="-32.75" width="120" height="60" as="geometry" />
        </mxCell>
        <mxCell id="pC5a80TTFG_IJ3n6PgxR-1916" value="Значительный" style="whiteSpace=wrap;html=1;fontSize=14;fillColor=#FF8000;strokeColor=none;fontColor=#FFFFFF;rounded=1;shadow=0;labelBackgroundColor=none;strokeWidth=3;spacing=5;fontStyle=0;arcSize=7;" vertex="1" parent="1">
          <mxGeometry x="1330" y="184.5" width="120" height="60" as="geometry" />
        </mxCell>
        <mxCell id="pC5a80TTFG_IJ3n6PgxR-1921" value="Значительный" style="whiteSpace=wrap;html=1;fontSize=14;fillColor=#FF8000;strokeColor=none;fontColor=#FFFFFF;rounded=1;shadow=0;labelBackgroundColor=none;strokeWidth=3;spacing=5;fontStyle=0;arcSize=7;" vertex="1" parent="1">
          <mxGeometry x="1660" y="230.5" width="120" height="60" as="geometry" />
        </mxCell>
        <mxCell id="pC5a80TTFG_IJ3n6PgxR-1922" value="Значительный" style="whiteSpace=wrap;html=1;fontSize=14;fillColor=#FF8000;strokeColor=none;fontColor=#FFFFFF;rounded=1;shadow=0;labelBackgroundColor=none;strokeWidth=3;spacing=5;fontStyle=0;arcSize=7;" vertex="1" parent="1">
          <mxGeometry x="1660" y="300.5" width="120" height="60" as="geometry" />
        </mxCell>
        <mxCell id="pC5a80TTFG_IJ3n6PgxR-1924" value="Значительный" style="whiteSpace=wrap;html=1;fontSize=14;fillColor=#FF8000;strokeColor=none;fontColor=#FFFFFF;rounded=1;shadow=0;labelBackgroundColor=none;strokeWidth=3;spacing=5;fontStyle=0;arcSize=7;" vertex="1" parent="1">
          <mxGeometry x="1660" y="447.75" width="120" height="60" as="geometry" />
        </mxCell>
        <mxCell id="pC5a80TTFG_IJ3n6PgxR-1925" value="Критический" style="whiteSpace=wrap;html=1;fontSize=14;fillColor=#FF3333;strokeColor=none;fontColor=#FFFFFF;rounded=1;shadow=0;labelBackgroundColor=none;strokeWidth=3;spacing=5;fontStyle=0;arcSize=7;" vertex="1" parent="1">
          <mxGeometry x="1660" y="371" width="120" height="60" as="geometry" />
        </mxCell>
        <mxCell id="pC5a80TTFG_IJ3n6PgxR-1932" value="Значительный" style="whiteSpace=wrap;html=1;fontSize=14;fillColor=#FF8000;strokeColor=none;fontColor=#FFFFFF;rounded=1;shadow=0;labelBackgroundColor=none;strokeWidth=3;spacing=5;fontStyle=0;arcSize=7;" vertex="1" parent="1">
          <mxGeometry x="1390" y="520" width="120" height="60" as="geometry" />
        </mxCell>
        <mxCell id="pC5a80TTFG_IJ3n6PgxR-1933" value="Значительный" style="whiteSpace=wrap;html=1;fontSize=14;fillColor=#FF8000;strokeColor=none;fontColor=#FFFFFF;rounded=1;shadow=0;labelBackgroundColor=none;strokeWidth=3;spacing=5;fontStyle=0;arcSize=7;" vertex="1" parent="1">
          <mxGeometry x="1390" y="590" width="120" height="60" as="geometry" />
        </mxCell>
        <mxCell id="pC5a80TTFG_IJ3n6PgxR-1934" value="Значительный" style="whiteSpace=wrap;html=1;fontSize=14;fillColor=#FF8000;strokeColor=none;fontColor=#FFFFFF;rounded=1;shadow=0;labelBackgroundColor=none;strokeWidth=3;spacing=5;fontStyle=0;arcSize=7;" vertex="1" parent="1">
          <mxGeometry x="1390" y="660.5" width="120" height="60" as="geometry" />
        </mxCell>
        <mxCell id="pC5a80TTFG_IJ3n6PgxR-1935" value="Значительный" style="whiteSpace=wrap;html=1;fontSize=14;fillColor=#FF8000;strokeColor=none;fontColor=#FFFFFF;rounded=1;shadow=0;labelBackgroundColor=none;strokeWidth=3;spacing=5;fontStyle=0;arcSize=7;" vertex="1" parent="1">
          <mxGeometry x="1390" y="737.25" width="120" height="60" as="geometry" />
        </mxCell>
        <mxCell id="pC5a80TTFG_IJ3n6PgxR-1940" value="Критический" style="whiteSpace=wrap;html=1;fontSize=14;fillColor=#FF3333;strokeColor=none;fontColor=#FFFFFF;rounded=1;shadow=0;labelBackgroundColor=none;strokeWidth=3;spacing=5;fontStyle=0;arcSize=7;" vertex="1" parent="1">
          <mxGeometry x="315" y="1120" width="120" height="60" as="geometry" />
        </mxCell>
        <mxCell id="pC5a80TTFG_IJ3n6PgxR-1941" value="Критический" style="whiteSpace=wrap;html=1;fontSize=14;fillColor=#FF3333;strokeColor=none;fontColor=#FFFFFF;rounded=1;shadow=0;labelBackgroundColor=none;strokeWidth=3;spacing=5;fontStyle=0;arcSize=7;" vertex="1" parent="1">
          <mxGeometry x="445" y="1120" width="120" height="60" as="geometry" />
        </mxCell>
        <mxCell id="pC5a80TTFG_IJ3n6PgxR-1944" value="Критический" style="whiteSpace=wrap;html=1;fontSize=14;fillColor=#FF3333;strokeColor=none;fontColor=#FFFFFF;rounded=1;shadow=0;labelBackgroundColor=none;strokeWidth=3;spacing=5;fontStyle=0;arcSize=7;" vertex="1" parent="1">
          <mxGeometry x="-210" y="900" width="120" height="60" as="geometry" />
        </mxCell>
        <mxCell id="pC5a80TTFG_IJ3n6PgxR-1945" value="Критический" style="whiteSpace=wrap;html=1;fontSize=14;fillColor=#FF3333;strokeColor=none;fontColor=#FFFFFF;rounded=1;shadow=0;labelBackgroundColor=none;strokeWidth=3;spacing=5;fontStyle=0;arcSize=7;" vertex="1" parent="1">
          <mxGeometry x="-80" y="900" width="120" height="60" as="geometry" />
        </mxCell>
        <mxCell id="pC5a80TTFG_IJ3n6PgxR-1948" value="Значительный" style="whiteSpace=wrap;html=1;fontSize=14;fillColor=#FF8000;strokeColor=none;fontColor=#FFFFFF;rounded=1;shadow=0;labelBackgroundColor=none;strokeWidth=3;spacing=5;fontStyle=0;arcSize=7;" vertex="1" parent="1">
          <mxGeometry x="740" y="910" width="120" height="60" as="geometry" />
        </mxCell>
        <mxCell id="pC5a80TTFG_IJ3n6PgxR-1949" value="Значительный" style="whiteSpace=wrap;html=1;fontSize=14;fillColor=#FF8000;strokeColor=none;fontColor=#FFFFFF;rounded=1;shadow=0;labelBackgroundColor=none;strokeWidth=3;spacing=5;fontStyle=0;arcSize=7;" vertex="1" parent="1">
          <mxGeometry x="870" y="910" width="120" height="60" as="geometry" />
        </mxCell>
        <mxCell id="pC5a80TTFG_IJ3n6PgxR-1950" value="Значительный" style="whiteSpace=wrap;html=1;fontSize=14;fillColor=#FF8000;strokeColor=none;fontColor=#FFFFFF;rounded=1;shadow=0;labelBackgroundColor=none;strokeWidth=3;spacing=5;fontStyle=0;arcSize=7;" vertex="1" parent="1">
          <mxGeometry x="1000" y="910" width="120" height="60" as="geometry" />
        </mxCell>
        <mxCell id="pC5a80TTFG_IJ3n6PgxR-1951" value="Значительный" style="whiteSpace=wrap;html=1;fontSize=14;fillColor=#FF8000;strokeColor=none;fontColor=#FFFFFF;rounded=1;shadow=0;labelBackgroundColor=none;strokeWidth=3;spacing=5;fontStyle=0;arcSize=7;" vertex="1" parent="1">
          <mxGeometry x="1130" y="910" width="120" height="60" as="geometry" />
        </mxCell>
        <mxCell id="pC5a80TTFG_IJ3n6PgxR-1957" value="Значительный" style="whiteSpace=wrap;html=1;fontSize=14;fillColor=#FF8000;strokeColor=none;fontColor=#FFFFFF;rounded=1;shadow=0;labelBackgroundColor=none;strokeWidth=3;spacing=5;fontStyle=0;arcSize=7;" vertex="1" parent="1">
          <mxGeometry x="50" y="900" width="120" height="60" as="geometry" />
        </mxCell>
        <mxCell id="pC5a80TTFG_IJ3n6PgxR-1958" value="Значительный" style="whiteSpace=wrap;html=1;fontSize=14;fillColor=#FF8000;strokeColor=none;fontColor=#FFFFFF;rounded=1;shadow=0;labelBackgroundColor=none;strokeWidth=3;spacing=5;fontStyle=0;arcSize=7;" vertex="1" parent="1">
          <mxGeometry x="180" y="900" width="120" height="60" as="geometry" />
        </mxCell>
        <mxCell id="pC5a80TTFG_IJ3n6PgxR-1959" value="Значительный" style="whiteSpace=wrap;html=1;fontSize=14;fillColor=#FF8000;strokeColor=none;fontColor=#FFFFFF;rounded=1;shadow=0;labelBackgroundColor=none;strokeWidth=3;spacing=5;fontStyle=0;arcSize=7;" vertex="1" parent="1">
          <mxGeometry x="575" y="1120" width="120" height="60" as="geometry" />
        </mxCell>
        <mxCell id="pC5a80TTFG_IJ3n6PgxR-1960" value="Значительный" style="whiteSpace=wrap;html=1;fontSize=14;fillColor=#FF8000;strokeColor=none;fontColor=#FFFFFF;rounded=1;shadow=0;labelBackgroundColor=none;strokeWidth=3;spacing=5;fontStyle=0;arcSize=7;" vertex="1" parent="1">
          <mxGeometry x="705" y="1120" width="120" height="60" as="geometry" />
        </mxCell>
        <mxCell id="pC5a80TTFG_IJ3n6PgxR-1966" value="Любая проблема с секретными данными приведёт к репутационным потерям, простоям, а в случае утечек может быть нанесён серьёзный финансовый вред." style="rounded=1;whiteSpace=wrap;html=1;" vertex="1" parent="1">
          <mxGeometry x="-810" y="38.25" width="260" height="552.75" as="geometry" />
        </mxCell>
        <mxCell id="pC5a80TTFG_IJ3n6PgxR-1967" value="Потеря, искажение или некачественные данные могут привести к репутационным патерям в глаза клиентов, так как данные публичны, утечка не так страшна." style="rounded=1;whiteSpace=wrap;html=1;" vertex="1" parent="1">
          <mxGeometry x="-215" y="-510" width="1565" height="60" as="geometry" />
        </mxCell>
        <mxCell id="pC5a80TTFG_IJ3n6PgxR-1968" value="Утечки и потеря персональных данных, а также данных о сделках критически опасно как в плане репутационных рисков так и финансовых." style="rounded=1;whiteSpace=wrap;html=1;" vertex="1" parent="1">
          <mxGeometry x="-200" y="1200" width="1450" height="60" as="geometry" />
        </mxCell>
        <mxCell id="pC5a80TTFG_IJ3n6PgxR-1969" value="Любая проблема с внутренними данными приведёт к репутационным потерям, простоям, а в случае утечек может быть нанесён серьёзный финансовый вред." style="rounded=1;whiteSpace=wrap;html=1;" vertex="1" parent="1">
          <mxGeometry x="1810" y="54.13" width="260" height="552.75" as="geometry" />
        </mxCell>
      </root>
    </mxGraphModel>
  </diagram>
</mxfile>
